<svg xmlns="http://www.w3.org/2000/svg" viewBox="0 0 906.86 465.27"><defs><style>.cls-1{fill:#fff;stroke:#f2f2f2;stroke-miterlimit:10;}</style></defs><title>codeBG1Asset 2</title><g id="Layer_2" data-name="Layer 2"><g id="Layer_1-2" data-name="Layer 1"><path class="cls-1" d="M194.1,464.77a7.51,7.51,0,0,1-1.14-4.56q.09-24,.12-48c0-.8,0-1.6.08-2.4a2.34,2.34,0,0,1,2.18-2.18,22.92,22.92,0,0,1,2.87-.18c5.44,0,10.88.09,16.31,0,2.84-.07,5,.64,6.16,3.7,2,.06,3.89.18,5.78.18q47.5,0,95,0,34.08,0,68.14,0c1.88,0,3.84.43,5.84-.69a17.52,17.52,0,0,0-.4-2.68c-2.37-7.64-4.8-15.25-7.17-22.88-.85-2.75-1.5-5.56-2.38-8.3-1-3.19-2.22-6.32-3.27-9.5-1.56-4.7-3.06-9.42-4.57-14.13-1-3.2-2.06-6.39-3.05-9.6-1.6-5.19-3.13-10.41-4.76-15.59-.92-2.89-2.06-5.7-3-8.59-3.86-12.36-7.59-24.75-11.54-37.08-2.44-7.61-5-15.17-7.21-22.86-3.51-12.12-7.83-24-11.72-36-1.62-5-2.94-10.13-4.5-15.17-.75-2.44-1.69-4.82-2.61-7.2a18.88,18.88,0,0,0-1.46-2.35,9.08,9.08,0,0,0-1.37,2.16c-.68,3-2.76,4.14-5.48,4.58-.79.13-1.6.07-2.39.17-2.29.3-3.39,1.32-3.73,3.65a27.14,27.14,0,0,0-.16,3.83c0,3.84,0,7.67,0,11.51,0,1.78.07,3.49,1.57,4.83,1.06.95.83,2.36.84,3.63q0,7,0,13.91c0,9.28,0,18.56,0,27.84a17.85,17.85,0,0,1-.33,3.8,2,2,0,0,1-1.38,1c-.53.07-1.13-.36-1.68-.61-.12-.05-.19-.25-.25-.39-.42-1-.35-2.27-1.66-2.73a4.13,4.13,0,0,0-3.67.53c-1.59,1-3.3,1-5.07,1.05-2.54.11-3.32,1-3.58,3.56,0,.32,0,.64,0,1a9.38,9.38,0,0,1-8.4,8.88,48,48,0,0,1-5.75.15H247.91c-1.57,0-3.2-.22-5,.87a21.3,21.3,0,0,0-.53,3.49c-.07,10.08-.07,20.16-.08,30.23a12.72,12.72,0,0,0,.21,2.39,2.5,2.5,0,0,0,2.56,2.38c3.67.1,7.35.11,11,.06,1.37,0,1.37-.13,3.92-2.49l-.65-2.74c2.47-3.5,5.94-2.27,9.52-2.33-.47,1.58-2.11,1-2.61,2.09v4.55c1.94,1.94,4.83.06,6.7,1.8-.34,1.47-1.43,1.19-2.28,1.19-6.88,0-13.75,0-20.63,0-2.4,0-4.79.24-7.18.2-2.86,0-5.71-.27-8.56-.47-.24,0-.45-.37-.95-.83a5.12,5.12,0,0,1,1.53-.84c1.56-.18,3.14-.22,4.91-.33a18.76,18.76,0,0,0,.71-3.43c0-4.79-.09-9.59-.16-14.38a4.32,4.32,0,0,1,0-.95c1.37-5.88-.31-11.79.12-17.67a6.58,6.58,0,0,0-.32-1.71c-1.88-2.3-5.18.13-7.29-2.57,4.57-1.19,8.8-.77,13-.73a97.28,97.28,0,0,0,12.61-.26c.38-3.42,1.15-6.64-1.12-9.72a6.65,6.65,0,0,1-.74-3.68c0-7.56-1.44-15-2.45-22.4-.27-2.06-.41-4.14-.64-6.2-.28-2.57-1.42-3.3-3.92-2.46-1.51.51-3,1.21-4.46,1.75q-13.78,4.9-27.57,9.77a23,23,0,0,1-2.74.88c-6.6,1.42-12.74,4.2-19,6.49-1.95.71-3.92,1.36-5.93,1.9-3.84,1-6.42-1-8.63-3.77a2.28,2.28,0,0,1,0-2.71,3.17,3.17,0,0,1,2.7-1.73,2.4,2.4,0,0,1,1.37.31c2.21,1.71,4.43.92,6.83.43,4.76-1,9.06-3.12,13.61-4.6,1.37-.44,2.68-1.07,4.07-1.42,6.07-1.52,11.73-4.19,17.64-6.17,3-1,6.08-2,9.16-2.79a101.93,101.93,0,0,0,15-5.71c.54-3.71.54-3.71-.88-6.85-2.7,1.2-3.46,3.43-3.37,6-1.72,1.64-3.86,1.94-5.76,2.7-2.21.88-2.33.77-4-1.16-.31-.35-.61-.71-1-1.17a21.58,21.58,0,0,0-7.39,1.53c-3.64,1.21-7.28,2.41-10.86,3.78-3.18,1.21-5.78.87-8.2-1.76-2.7-2.93-5.68-5.6-8.88-8.7-.88.18-2.11.38-3.3.7-1.71.46-3.17.31-4.14-1.4a1.74,1.74,0,0,0-.29-.38,2.55,2.55,0,0,0-3-1c-1,.39-1.32,1.43-.82,3.35.37,1.39.9,2.74,1.2,4.14a3.85,3.85,0,0,1-.1,2.31,3,3,0,0,1-1.76,1.34,1.83,1.83,0,0,1-1.55-.82c-.83-1.71-1.5-3.51-2.16-5.3-.32-.89-.39-1.89-.74-2.77a4.28,4.28,0,0,0-1.16-1.43,1.14,1.14,0,0,0-.9-.21,14.21,14.21,0,0,0-1.75.62,17,17,0,0,0,1.45,6.18,3.4,3.4,0,0,1-1.13,4.24c-1.23,1-2.14,2.41-3.43,3.29-2.51,1.73-4.54,1.14-5.86-1.6a27.58,27.58,0,0,1-2.46-9.23c-.13-1.24-.28-2.49-.4-3.51-1.68-1.26-3.33-1-4.9-1-10.56,0-21.11.05-31.67.06-2,0-4.16.34-6.22-1-.75-4.66-.25-9.43-.44-14.43a14.86,14.86,0,0,0-2.32,0c-6,1-11.74,3.09-17.57,4.78-5.22,1.51-10.47,2.89-15.68,4.43-2.75.82-5.44,1.85-8.16,2.78-4.68,1.62-9.52,2.63-14.26,4-6.14,1.77-12.17,3.87-18.25,5.84a27.27,27.27,0,0,1-2.72.93c-2.48.52-5,.94-7.36,1.39-.72-.92-.26-1.34.34-1.61,1.7-.76,3.87-.56,5.21-2.81l-5-19c-4.75-.23-4.76-.23-9.15-2.64-1.4-.76-2.81-1.51-4.18-2.34a11.6,11.6,0,0,0-5.51-1.43,7.27,7.27,0,0,0-6.33,2.8c-.47.59-.84,1.27-1.5,2.27a4.19,4.19,0,0,1-.28-3.77,4.88,4.88,0,0,1,2.94-3,11.18,11.18,0,0,1,9.69.92c2.52,1.38,5,2.85,7.51,4.22a15.46,15.46,0,0,0,2.52.8c.09-4-1.52-7-3.73-10.13a6.29,6.29,0,0,1,1.82-.8,3.17,3.17,0,0,1,1.74.57c1,.71,1.1,2.37,2.6,2.64-.15.54-.28,1.07-.42,1.6l.38.08v-1.62q-1.74-13-3.48-26.07c-.19-1.41-.17-3-.85-4.16-1.16-2-1.08-3.95-.92-6,.21-2.54.48-5.08.7-7.62a19.66,19.66,0,0,0,.08-2.87A2.66,2.66,0,0,0,31,154.57c-.94-.14-1.91-.06-2.85-.22a1.5,1.5,0,0,1-1-.77c-.23-.81.48-1.07,1.08-1.2a8.69,8.69,0,0,1,1.9-.19c2.76,0,3.82-.94,3.5-4.31-.31-3.17-.65-6.35-.93-9.52-.16-1.75-.24-3.41.89-5a8.29,8.29,0,0,0,.9-3.64c.37-3,.6-6,.93-9,.65-5.89,2.75-11.45,4-17.21.47-2.15,1.27-4.26.75-6.68L34.2,94.17c-.11-1.36.61-1.57,1.47-1.44,2.33.38,4.58,1.46,7,.86l-.1-.12a9.85,9.85,0,0,0,2.26,1.67,38.21,38.21,0,0,0,6.86,2.1,161.11,161.11,0,0,1,23.21,5.91,11.29,11.29,0,0,0,1.84.53c8.94,1.18,17.28,4.61,25.91,6.94a27.39,27.39,0,0,0,3.67,1.08c9.12,1.07,17.68,4.34,26.47,6.67,3.53.93,7.09,1.7,10.82,2.58a15.3,15.3,0,0,0,1.41-2.68c1.14-4,2.18-8,3.26-12q3-11.1,6.05-22.21a15.21,15.21,0,0,1,.86-2.24c1.44-3.2,3.2-4.19,6.46-3.25,3.68,1.07,7.29,2.35,10.91,3.61.33.11.49.71.93,1.4a11.59,11.59,0,0,1-2.54,0c-3.1-.77-6.18-1.62-9.26-2.47s-4.56,0-5.37,3c-.72,2.63-1.26,5.3-2,7.92-1.21,4.48-2.48,8.93-3.74,13.39-.56,2-1.24,4-1.7,6-.73,3.26-1.32,6.55-2,9.85,3.94,3.22,9.24,2.5,14.1,5.53a31.77,31.77,0,0,1-11.2-1.5c-8.83-2.85-17.84-5-26.82-7.29-2.94-.74-5.82-1.73-8.76-2.5-8.5-2.22-17-4.36-25.53-6.58-2.16-.57-4.26-1.35-6.41-2a68,68,0,0,0-10.61-2.74c-3.47-.45-6.83-1.65-10.24-2.51-5.11-1.29-10.21-2.63-15.34-3.84-2.81-.66-3.93,0-4.41,2.84q-2.52,14.9-4.8,29.83a4.56,4.56,0,0,0,.6,3.14c1.14,1.51.92,3,.59,4.55-.58,2.82-1.17,5.64-1.74,8.46a19.59,19.59,0,0,0-.42,2.85,2.24,2.24,0,0,0,2.16,2.62,37.6,37.6,0,0,0,3.83.13l19.19,0h82c2.58,0,3.94.54,3.53,1.29-.8,1.48-2.27.94-3.44.93-8.79,0-17.58-.19-26.37-.24-2.72,0-5.43.26-8.14.27q-32.86,0-65.73,0c-1.6,0-3.2,0-4.79.14A2.26,2.26,0,0,0,36,157.2a22,22,0,0,0,.41,3.33c.46,2.52.95,5,1.49,7.53.43,2,1.31,4-.69,5.79-.43.38-.3,1.51-.23,2.28.16,1.92.43,3.82.67,5.72,1.24,10,2.22,20,4,29.91.39,2.19,1.05,4.34,1.66,6.49,1.31,4.6,2.66,9.19,4.06,14a14.46,14.46,0,0,0,2.89,0c1.71-.38,3.38-.94,5.07-1.44a60.77,60.77,0,0,1,6.89-2,69.17,69.17,0,0,0,12-3.27c5.11-1.82,10.4-3.12,15.59-4.7s10.37-3.27,15.56-4.9a20.66,20.66,0,0,1,3.21-.95c6.22-.92,12-3.33,17.9-5.28a140.24,140.24,0,0,1,14.72-4.29c3.74-.79,7.33-2.25,11-3.33,4.9-1.43,9.86-2.69,14.74-4.19,4-1.22,4.11-1.42,2.95-5.43-1.65-5.68-3.51-11.3-5.29-16.94-.29-.91-.72-1.79-.92-2.72a122.11,122.11,0,0,0-4.38-15.17c-1.51-4.23-.49-6.11,3.7-7.72a9.23,9.23,0,0,1,1.85-.51c6.68-1.08,12.78-4,19.17-6a67.89,67.89,0,0,1,6.89-2.05,110.06,110.06,0,0,0,12-3.39c3.2-1,6.42-2,9.61-3,6.55-2.09,13.08-4.21,19.62-6.31a35.23,35.23,0,0,1,5-1.57c5.41-.88,10.48-2.82,15.65-4.5,3.8-1.24,7.67-2.25,11.5-3.39,1.53-.45,3-1,4.57-1.45a4.16,4.16,0,0,0,2.93-3.45c.61-2.78-.14-4.23-2.89-5.12-3-1-6.12-1.85-9.17-2.81a20.29,20.29,0,0,1-2.21-1c.9-.46,1.45-1,1.84-.91q5.82,1.41,11.57,3c2.54.71,3.46,2.65,3.46,5.13a13.75,13.75,0,0,1-.2,1.91,3,3,0,0,0,1.17,3,6.48,6.48,0,0,1,2.21,3.6c1.15,4.15,2.27,8.3,3.6,12.39,1.73,5.32,3.87,10.49,4.69,16.08a33.57,33.57,0,0,0,1.83,5.45c.61,1.8,1.48,3.55,1.27,5.43-1,1.89-2.9,2-4.51,2.63a1.78,1.78,0,0,0-1,2.71c.6,1.11,1.34,2.15,2.06,3.29l9,.71c2.71-2.79,6.8-2,10.78-2.54-.19-1.71-.33-2.92-.47-4.14-.28-2.5-1.1-5,1.23-7.16.56-.51.53-1.79.58-2.73.21-3.51.4-7,.48-10.55.38-15.21,1.91-30.32,3.7-45.41.6-5.08,1.37-10.14,2.06-15.21.06-.47.16-.94.18-1.42.53-11.86,3-23.4,5.57-34.95,1.5-6.86,2.44-13.85,3.78-20.75.39-2-.93-3.31-1.31-5.06a77,77,0,0,1,6.12-13.51c.48,1,.92,1.47.91,1.94-.1,3.84-.24,7.68-.49,11.51a4.07,4.07,0,0,1-1,2.56c-1.68,1.53-2.08,3.53-2.61,5.54-1.72,6.51-2.61,13.17-3.76,19.78s-2.42,13.2-3.64,19.8c-1.11,6-2.35,11.9-2.5,18a120.51,120.51,0,0,1-1.16,12.41c-2.3,18.1-3.38,36.3-4.24,54.52-.09,1.74-.42,3.51.91,5,1,1.1.45,2.43.36,3.68-.14,1.87-1.24,3.68-.3,5.83a8.45,8.45,0,0,0,2.13.58c3.81,0,7.64.28,11.6-.41.32-1.18.54-2.25.91-3.27a25.89,25.89,0,0,1,2-4.82,7.92,7.92,0,0,1,7.72-3.85c3,.18,6.08.05,9.11.26,2.74.19,5-1.1,7.16-2.34a2.55,2.55,0,0,0,.77-2c0-.43-.77-1.08-1.28-1.19a16.08,16.08,0,0,0-3.33-.22c-8.79,0-17.59,0-26.39,0-5.27,0-5.5-.23-5.52-5.3,0-8.16-.06-16.32,0-24.48a20,20,0,0,1,.58-4.74,4.11,4.11,0,0,1,4.11-3.38c2.71-.11,5.43-.27,8.14-.28q23.28,0,46.54,0,7.2,0,14.39.23c4.49.13,5.56,1.44,5.5,5.87-.12,8.79-.13,17.59-.15,26.39a28.15,28.15,0,0,0,.4,3.38c.93.46,1.81.82,2.6,1.31,3.12,1.92,3.16,5.4,0,7.23-5,2.89-9,7.13-13.65,10.48-.34.24-.44.81-.74,1.4a13.39,13.39,0,0,0,1.34,1.85c.79.78,1.82,1.35,2.55,2.18a12.76,12.76,0,0,0,11.56,4.43c3.17-.29,6.39,0,9.59-.09,1.24,0,2.47-.27,3.45-.38,1.17-1.57,1-3,1.05-4.47,0-2.08-.15-4.17,0-6.23a16.2,16.2,0,0,1,1.07-4.61c1.48-3.68,4.3-5.37,8.3-5.19,2.71.13,5.46-.12,8.14.22,3.1.39,5.6-1,8.16-2.2a2.69,2.69,0,0,0,1.05-1.92c.1-.89-.66-1.44-1.51-1.52a37.61,37.61,0,0,0-3.83-.15l-25.43,0c-1,0-1.92.05-2.87,0a2.5,2.5,0,0,1-2.58-2.35,19.58,19.58,0,0,1-.17-2.87q0-13,0-25.92v-.48c.16-4.81,1.51-6.24,6.43-6.26,15.67-.06,31.33,0,47,0,9.11,0,18.21,0,27.32,0,6,0,6.58.77,6.54,6.66-.05,7.84,0,15.68-.07,23.52,0,1.44-.1,2.88-.05,4.32.07,2.08-1,3.28-3,3.9a17.33,17.33,0,0,0-.31,2.33,3.65,3.65,0,0,1-2.44,3.74,17.45,17.45,0,0,0-5.78,4.18,27,27,0,0,1-3.81,2.88,13.69,13.69,0,0,0-4.49,4.35,8.37,8.37,0,0,0,1,1.62c1.5,1.43,3.11,2.75,4.61,4.19a10.44,10.44,0,0,0,7.83,2.82c25.11-.11,50.22-.06,75.33-.08,1.89,0,3.84.29,5.8-.56a8.91,8.91,0,0,0,.76-1.66c1.47-6,2.92-12.1,4.3-18.17a7.69,7.69,0,0,0,.1-3.27,3.46,3.46,0,0,0-3.73-3.05c-2.24-.07-4.48.06-6.72,0-.89,0-1.79-.22-3-.37,1.81-1.16,1.81-1.16,5-1.25,2.28-.06,2.28-.06,4.64-1.23a11.26,11.26,0,0,0-.76-2.62c-5.2-9.13-10.45-18.22-15.67-27.29-5,2.33-5,2.34-10.68.85-3.09-.8-6.17-1.68-9.26-2.5-.92-.25-1.86-.49-2.8-.66-1.69-.32-3.17-.07-4.12,1.61-1.53,2.67-3.77,2.94-6.6,2.27-3.23-.76-6.57-1-10.1-1.59a13.52,13.52,0,0,0-.64,2.68c-.58,13.21-.25,24.24.78,27.68,1.55,1.11,3.36.79,5.09.8,9,0,17.91,0,26.87,0,1.22,0,2.44.18,3.93.3-1.21,1.56-2.56,1.1-3.73,1.11-8.8,0-17.6,0-26.39,0-1.92,0-3.85.11-5.76,0-2.09-.1-2.9-.91-3.06-2.92-.1-1.27-.07-2.56-.07-3.84,0-8.16,0-16.32,0-24.48a10,10,0,0,0-1.11-5.55,6.92,6.92,0,0,1-.55-5.58c1.13-4.33,2.3-8.66,3.61-12.94,1-3.41,2.81-4.69,6.41-4.41a40.82,40.82,0,0,1,8,1.43c5.69,1.6,11.27,3.57,17,5.15,3.68,1,7.49,1.54,11.22,2.42,4.35,1,8.65,2.25,13,3.3,1.65.39,3.3,1.24,5.52.48-.6-.61-.92-1.18-1.38-1.36a62.54,62.54,0,0,0-13-3.07,41.17,41.17,0,0,1-5.11-1.2c-6.43-1.9-12.85-3.86-19.28-5.78a11.14,11.14,0,0,0-2.33-.5c-6.78-.45-13.1-2.82-19.56-4.57a9.14,9.14,0,0,1-1.56-.88,18.63,18.63,0,0,1,0-3.07c.2-1.25.7-2.46,1-3.7,1.33-5.43,3-10.77,3.78-16.35.53-3.76,1.77-7.42,2.73-11.26-1.54-1.83-3.84-2-6-2.52-4.37-1-8.79-1.73-13.12-2.85C486.85,44,482.16,42.38,477.4,41c-2.61-.72-5.29-1.18-7.92-1.82-5.91-1.41-11.8-2.87-17.71-4.3-3.26-.79-6.53-1.52-9.78-2.32-4-1-8.06-2-12.06-3.08-5.08-1.38-10.06-3.35-15.23-4.18-6-1-11.87-2.54-17.76-4-6.82-1.69-13.66-3.29-20.46-5.07-5.71-1.51-11.38-3.22-17.07-4.84a13.34,13.34,0,0,0-2.77-.73c-6.3-.38-12.19-2.57-18.24-4-4.95-1.18-9.9-2.32-14.84-3.53A12.26,12.26,0,0,1,321,2.05c-.17-.09-.27-.57-.21-.83s.33-.67.54-.69a5.92,5.92,0,0,1,1.88.1l32.92,8.52a14.86,14.86,0,0,0,1.85.5c10.21,1.3,19.88,4.71,29.71,7.53a12.24,12.24,0,0,0,1.84.5c8.13,1.06,15.89,3.65,23.79,5.66,1.85.47,3.78.65,5.63,1.13,6.64,1.74,13.26,3.57,19.9,5.31,3.55.93,7.12,1.75,10.7,2.59,3.42.81,6.86,1.53,10.28,2.35,7.92,1.91,15.84,3.83,23.75,5.81,2.94.74,5.84,1.64,8.75,2.47A158.86,158.86,0,0,0,510,47.34c5.49.92,10.85,2.67,16.26,4.07,9.13,2.37,18.24,4.78,27.36,7.14,4.17,1.08,8.37,2,12.57,3,7.64,1.7,15.15,3.95,22.71,6,.77.21,1.49.61,2.27.74,8.86,1.45,17.35,4.44,26.09,6.31,7.35,1.58,14.74,3,21.87,5.38,7.46,2.48,15.24,3.53,22.79,5.61,7.39,2,14.86,3.78,22.36,5.42,6.69,1.47,13.22,3.69,19.82,5.59a15,15,0,0,0,2.3.67c7.34.87,14.36,3.14,21.48,4.94,2.95.74,5.94,1.29,8.88,2,4.95,1.26,9.88,2.6,14.82,3.93,2.78.74,5.53,1.6,8.33,2.25a22.81,22.81,0,0,0,4.73.56c3.51,0,7-.07,10.53-.09s5.38,1.79,5.4,5.25c.07,9.6,0,19.2,0,28.8a13.55,13.55,0,0,1-.08,1.43c-.19,1.63-.79,2.33-2.33,2.57s-3.09.41-4.56.59c-.75,3.27-1.33,6.22-2.11,9.12-.66,2.46-1.48,4.88-2.34,7.28a16.65,16.65,0,0,0-.18,10c3.65.21,7,.52,10.3.55,7.36.07,14.71,0,22.06,0a5.43,5.43,0,0,1,2.78.51c1.9,1.2,3.95,1.13,6,1.13q28.79,0,57.58,0c5.89,0,6.07-.21,6.07-6.3a15.45,15.45,0,0,1,1.18-6.47c1.42-3.25,1.07-6.91.22-10.35a6,6,0,0,1,0-3.68,12.09,12.09,0,0,0,.57-3.75c.06-4.48.11-9,0-13.43-.06-1.89-.9-3.75-.9-5.62s.88-3.74.9-5.61c.11-7.68,0-15.36,0-23,0-1.81-.09-3.54-1.78-4.69s-2.11-3-2.22-5c-.12-2.35-.63-2.82-2.88-2.91-2.87-.13-5.75,0-8.63-.11-8.14-.26-16.27,0-24.4.08-3,0-6-.07-9.05-.1-.95,0-2,0-2.44-1.08-.24-.6,1-1.18,2.69-1.23,1.12,0,2.24,0,3.36,0,6.56,0,13.12,0,19.67,0,1.58,0,3.15-.12,5-.19a20,20,0,0,0,.66-3.36c.08-3.68,0-7.36,0-11a44.92,44.92,0,0,1,.15-4.79c.34-3.12,1.84-4.52,5-4.65,2.07-.08,4.15.09,6.23.09l33.11-.09a13.66,13.66,0,0,1,1.43,0c3,.35,4.64,2,4.68,5.07.06,5.76,0,11.52-.08,17.28a9.87,9.87,0,0,1-.13,1.43A2.48,2.48,0,0,1,903.58,87c-2.88.15-5.76.1-8.63.17a26.55,26.55,0,0,0-3.34.28,5.29,5.29,0,0,0-1.37.75,9.86,9.86,0,0,0-.34,2.25c.15,2.22-.21,4.1-2.39,5.31-1.27.71-1.29,2.11-1.29,3.41v10.08c0,4.64,0,9.28,0,13.92a7.53,7.53,0,0,0,1.52,5.14c-1.45,2-1.5,4.41-1.48,6.8,0,3.68,0,7.36,0,11,0,2.42,0,4.81,1.46,6.84-2.17,3.53-1.32,7.27-1.31,10.9a3.24,3.24,0,0,0,1,2.1c1.32,1.24,1.47,2.74,1.44,4.38,0,1.92.05,3.84,0,5.76s0,3.78,2,5a3.92,3.92,0,0,1,1.13,2.47,20.76,20.76,0,0,1,.06,3.35,3.19,3.19,0,0,1-1.6,3.23,3.33,3.33,0,0,0-1.58,3.26,35.11,35.11,0,0,1-.1,3.84,4.45,4.45,0,0,1-.85,2.62c-1.51,1.35-1.66,3-1.63,4.77,0,2.72,0,5.44,0,8.16-.06,3.27-.61,3.81-4,4a25.1,25.1,0,0,1-3.36-.05c-2.11-.18-2.93-.91-3-2.95-.14-2.72-.1-5.44-.13-8.16a10.4,10.4,0,0,0-1.15-5.52c-.74-1.26-.61-3.06-.77-4.62-.21-2,.48-4.17-.81-6-1.54-1-3.18-.74-4.75-.75q-29.52,0-59,0c-1.76,0-3.52-.07-4.77,1.58-.77,1-2,.91-3.1.9-2.11,0-4,.25-5.56,2.07s-6.53,1.78-7.95.05c-1.58-1.92-3.4-2.15-5.52-2.09-1.43,0-2.88,0-4.3.21a2.09,2.09,0,0,0-1.82,1.95c0,.31,0,.64,0,1-.29,3.65-.69,4.23-4.09,4.53a56.05,56.05,0,0,1-6.2-.19c-4.63-.11-9.26-.25-13.89-.28-1.56,0-2.18.77-2.29,2.49-.08,1.27,0,2.55,0,3.83q0,56.16,0,112.31,0,61,0,121.92c0,2.18-.49,4.51,1.57,6.23.3.24.31.87.38,1.33a3.46,3.46,0,0,1-.08.95c-.72,4.22-1.44,8.44-2.14,12.49-1.3.54-1.89,0-2-.86-.71-3.93-1.33-7.87-2-11.81a2.63,2.63,0,0,1,.78-2.62,3.7,3.7,0,0,0,1.1-3c0-1,0-1.92,0-2.88q0-54.72,0-109.43,0-62.16,0-124.31c0-2,.5-4.16-.82-6.18a7.49,7.49,0,0,0-1.77-.42q-73.41,0-146.83.06a5.59,5.59,0,0,0-1.57.61,12.38,12.38,0,0,0,.33,2.22c1,3,2.08,6,3,9.11,1.44,4.73,2.65,9.54,4.17,14.24,3.68,11.41,7.49,22.77,11.23,34.15a13.39,13.39,0,0,1,.52,1.85c1.13,6.34,3.73,12.22,5.77,18.27.26.76.6,1.49.83,2.25,1.87,6.11,3.74,12.22,5.56,18.35,1.19,4,2.18,8,3.44,12,1.21,3.8,2.7,7.52,4,11.3.67,1.95,1.18,4,1.79,5.94q2.07,6.65,4.15,13.28c1.1,3.51,2.2,7,3.33,10.52,1.83,5.61,3.73,11.2,5.52,16.83,3.84,12,7.63,24.06,11.45,36.09.48,1.5.69,3.15,1.89,4,2.95-.14,5.63-.36,8.32-.39,7-.07,14.07-.05,21.11-.06a25,25,0,0,1,2.87.06,2.25,2.25,0,0,1,2.16,2.15c.07.8,0,1.6,0,2.4,0,7.84-.19,15.69,0,23.52a85.94,85.94,0,0,1-1.28,14.27c-.69,5-3.05,9-7.64,11.53-1.11.61-2.2,1.27-3.29,1.9h-8.64c-1.65-1.24-3.15-2.84-5-3.66-2.43-1.08-4.14-2.79-6-4.51a6.17,6.17,0,0,1-2.2-5c0-1.72.38-3.52-.64-5.13-1.59-1.15-3.41-.75-5.13-.75q-114.17,0-228.35,0c-2.89,0-5.76-.06-8.3,1.88-2.22-1.89-4.74-1.93-7.33-1.89-5.28.08-10.56,0-15.83,0H225.83c-6.08,0-6.11,0-6.07,6.15,0,4.3.17,8.6.26,12.9ZM352.92,198.66a13.22,13.22,0,0,0,1,5.23c2.23,7,4.52,14,6.75,21,3.06,9.58,6.07,19.18,9.12,28.76,2.28,7.16,4.61,14.29,6.85,21.46.81,2.59,1.41,5.25,2.13,7.87.34,1.23.64,2.48,1.07,3.68,2.79,7.83,5.52,15.67,7.83,23.66,1.5,5.22,3.24,10.37,4.84,15.57.84,2.75,1.43,5.59,2.43,8.28,2.68,7.19,5.11,14.45,7.16,21.85,1.63,5.85,3.5,11.63,5.33,17.42.68,2.13,1.48,4.22,2.34,6.28a13.64,13.64,0,0,0,1.61,2.37c1.77-1,3.32-1.8,4.83-2.68s3-1.87,4.5-2.73c3.18-1.78,5.87-1.1,7.74,2,2.28,3.85,4.42,7.78,6.7,11.62,2.61,4.39,5.29,8.74,8,13.09a12,12,0,0,0,1.44,1.55c2.6-1.32,5.17-2.57,7.67-3.92,1.86-1,3.69-1.85,5.9-1.45a6.38,6.38,0,0,0,4.52-1.23c4.63-2.83,9.26-5.65,13.93-8.41,3-1.78,6.16-3.39,9.17-5.2,5.74-3.46,11.43-7,17.15-10.52a7.75,7.75,0,0,1,1.3-.62c6.92-2.63,13-6.82,19.26-10.62,2-1.21,3.85-2.82,6.19-3.29,2.17,1.14,2.65,3.33,3.81,5s2.19,2.06,4,1q7.08-4,14.08-8.18c5.35-3.18,10.63-6.48,16-9.66,7.82-4.64,15.69-9.21,23.53-13.82,1.52-.89,2.88-2.12,4.49-2.74,4.85-1.86,8.58-5.56,13.19-7.79,1.81-.87,2.12-2.07,1.57-4-1.07-3.84-2.05-7.73-3.36-11.49q-3.57-10.17-6.61-20.51c-3.48-11.79-7.58-23.4-11.34-35.11-1.51-4.72-2.71-9.53-4.22-14.25-3.66-11.41-7.63-22.73-11-34.21-1.83-6.14-2.52-5.6-7.59-5.61q-25.91,0-51.81,0a23.45,23.45,0,0,0-3.35.2,8.25,8.25,0,0,0-1.94,1c1.35,1.09,2.32,1.84,3.26,2.62a19,19,0,0,1,2.85,2.51,5,5,0,0,1-.46,6.94c-2.06,2-4.5,2-6.82-.08-2.83-2.57-5.59-5.23-8.4-7.84-6.79-6.32-4.9-5.28-13-5.27q-29.51,0-59,0c-1.28,0-2.56-.06-3.83.05a8.34,8.34,0,0,0-2,.91l2.86,2.31c1.1.91,2.24,1.79,3.28,2.76,2.1,1.94,1.5,5.48.06,7-2,2.11-4.85,2.14-7.22,0-3.79-3.43-7.62-6.84-11.22-10.47a7.52,7.52,0,0,0-5.85-2.54c-15.51.1-31,0-46.53,0C355.82,198.33,354.58,198.52,352.92,198.66ZM663,414.38a33.81,33.81,0,0,0-8.26-.51q-35.5,0-71,0l-179.45,0H221.47c-.8,0-1.6-.06-2.39,0a2.4,2.4,0,0,0-2.58,2.29,26.82,26.82,0,0,0-.14,3.35q0,9.12,0,18.24c0,1.12,0,2.25.07,3.36a2.11,2.11,0,0,0,2.06,2.23c2.07.13,4.15.1,6.23.1q101.49,0,203,0l228.89,0a35,35,0,0,0,3.83,0,14.67,14.67,0,0,0,2.59-.7C663.85,438.92,663.89,418.93,663,414.38Zm84-270.66a73,73,0,0,0,.12-10.22,3.82,3.82,0,0,0-.83-2.18,4.35,4.35,0,0,1-.85-4c.6-3.46,1.25-6.92,1.66-10.4.35-3.1-.66-4.13-3.68-4.22-.79,0-1.59,0-2.39,0-2.73,0-5.4,0-7.55-2.21a7,7,0,0,0-3-1.33c-4.13-1.24-8.27-2.43-12.41-3.62-1.07-.31-2.15-.6-3.24-.83-3.75-.79-7.52-1.47-11.25-2.34-6.21-1.47-12.4-3.06-18.6-4.59-3.56-.89-7.14-1.7-10.67-2.68-5.23-1.45-10.4-3.15-15.65-4.49C654.47,89.56,650.17,89,646,88c-7.13-1.76-14.16-4-21.43-5.16a23.86,23.86,0,0,1-2.29-.67q-9.9-2.79-19.81-5.57c-1.07-.3-2.17-.54-3.26-.75-3.13-.63-6.29-1.1-9.38-1.87-4.65-1.15-9.2-2.77-13.88-3.72-6.74-1.36-13.36-3.1-20-5a171.19,171.19,0,0,0-21.42-5c-2.06-.32-3,.18-3.58,2.15-.27.92-.35,1.89-.59,2.81q-1.8,7-3.64,13.9c-.65,2.47-1.36,4.93-1.94,7.42a2.09,2.09,0,0,0,1.46,2.65c1.05.37,2.15.6,3.23.87,4,1,8,2,12.06,3.06,5.4,1.42,10.76,3,16.17,4.32,3.56.9,7.2,1.49,10.76,2.35,6,1.46,12.07,3,18.1,4.55,2.32.58,4.66,1.1,7,1.65,7.29,1.7,14.28,4.67,21.85,5.2a7.15,7.15,0,0,1,1.39.37c10.76,3,21.44,6.3,32.38,8.6,9.85,2.07,19.32,5.73,29.35,7a13.26,13.26,0,0,1,1.84.52c5.85,1.62,11.67,3.34,17.55,4.85,8.35,2.15,16.73,4.18,25.11,6.2,5.74,1.39,11.49,2.75,17.26,4C742.3,143.12,744.18,144.26,747,143.72ZM614.83,335.84a10.36,10.36,0,0,0-1.89.56c-2.42,1.22-4.85,2.42-7.2,3.78s-4.18,3-6.47,4.08c-6.13,2.79-11.45,6.95-17.47,9.93-4,2-7.68,4.55-11.52,6.83q-8.65,5.13-17.33,10.23a14.86,14.86,0,0,1-3.43,1.66,18.53,18.53,0,0,0-7.65,4.72,11.83,11.83,0,0,1-2.65,1.93c-5.87,2.9-11.12,6.83-17,9.8-6.24,3.17-12,7.27-18,10.94-1.08.67-2.24,1.23-3.35,1.86q-3.12,1.77-6.23,3.58c-1.91,1.12-3.83,2.26-5.7,3.45a9.12,9.12,0,0,0-1.44,1.69c1.47.19,2.37.39,3.27.41,2.71,0,5.43,0,8.15,0l133.78,0c1.12,0,2.24,0,3.36,0,2.2-.15,2.94-1.07,2.36-3.09-1.62-5.68-3.26-11.36-5-17-.61-2-1.61-3.84-2.25-5.81-1.78-5.46-3.48-11-5.19-16.44-2.14-6.85-4.25-13.72-6.42-20.56-1.15-3.65-2.39-7.28-3.65-10.89A7.65,7.65,0,0,0,614.83,335.84ZM574.59,166.21c-.66,2.56-1.1,4.08-1.44,5.63a6.78,6.78,0,0,0,0,1.91,2.15,2.15,0,0,0,2,2.26c1.75.13,3.52.15,5.27.15H740.18c1.58,0,3.15-.08,4.63-.12a6.38,6.38,0,0,0,.22-6.76c-3.68-1-7.36-2.07-11.07-3-5.9-1.44-11.87-2.62-17.72-4.21-10.64-2.9-21.22-6-32-8.21-8.29-1.72-16.48-3.91-24.71-5.9-2-.49-4-.94-6-1.5-5.22-1.48-10.4-3.09-15.64-4.47-2.77-.74-5.67-1-8.46-1.67-7.75-1.92-15.47-4-23.21-6-2-.52-4-1-6-1.52-4.64-1.2-9.26-2.46-13.91-3.62-1.85-.46-2.84.06-3.21,1.88-1.13,5.45-3.64,10.62-3.37,16.37a3.3,3.3,0,0,1-.39,1.84c-1.34,2.16-.43,4,.7,5.81,1.7,2.71,3.57,5.31,5.25,8A13.82,13.82,0,0,1,587,167c.5,2.14-.38,3.69-2.19,4.86a4.1,4.1,0,0,1-5.31-.19,26.14,26.14,0,0,1-2.55-2.79C576.33,168.26,575.76,167.58,574.59,166.21Zm172.52,28c0-3.31.12-6.48.12-9.66,0-6.08,0-6.1-6.1-6.1l-251.32,0c-1.44,0-2.88,0-4.31.07a8.21,8.21,0,0,0-1.89.7,17.79,17.79,0,0,0,4.95,5.41c2,1.62,3.9,3.27,5.9,4.85,4.3,3.42,8.73,6.55,14.7,5.63l149.16,0q41.49,0,83,0C743,195,744.8,195.3,747.11,194.2Zm-331,216.36c-.92-4-1.52-7.59-2.69-11.06-3.6-10.75-7.25-21.48-10.77-32.25-2-6.07-3.71-12.23-5.63-18.32-.76-2.44-1.81-4.78-2.59-7.22q-3.06-9.58-6-19.21c-1.39-4.59-2.35-9.33-4.08-13.78-4.53-11.64-7.47-23.78-11.54-35.56-1.25-3.62-2.09-7.38-3.29-11-1.56-4.7-3.43-9.3-4.92-14-2.55-8.07-4.84-16.23-7.39-24.3-2.41-7.62-5.07-15.16-7.52-22.76a3.38,3.38,0,0,0-3.46-2.7q-6,0-12,.07a4.86,4.86,0,0,0-1.59.57,3.54,3.54,0,0,0-.1,1.17q3.89,12.6,7.82,25.18c3.33,10.68,6.61,21.38,10,32,3.61,11.43,7.33,22.82,11,34.24,1,3.19,1.91,6.43,2.87,9.63.6,2,1.2,4,1.86,6,1.31,3.93,2.72,7.84,4,11.79,2.42,7.45,4.82,14.91,7.14,22.39.9,2.9,1.44,5.91,2.38,8.79,3.32,10.18,6.77,20.31,10.13,30.47,1.06,3.19,1.93,6.43,3,9.62,2,6.08,4,12.13,6,18.19a3.74,3.74,0,0,0,4,2.8c3.68,0,7.36,0,11,0A11.21,11.21,0,0,0,416.13,410.56ZM575.85,199.14c.22,1.2.32,2.14.57,3,1.23,4.3,2.32,8.65,3.8,12.86,3.23,9.2,6.3,18.44,9,27.82,2.49,8.75,5.59,17.32,8.35,26,2.41,7.61,4.7,15.26,7.1,22.88.86,2.73,2,5.39,2.82,8.13,3.49,11.29,6.87,22.62,10.41,33.89,3.16,10,6.36,20.09,9.8,30,2.09,6,3.31,12.34,5.89,18.23a91.08,91.08,0,0,1,3.16,9.54c1.62,5.19,3.16,10.4,4.82,15.57a34.57,34.57,0,0,0,1.85,3.93,114.39,114.39,0,0,0,14.08.11,6.09,6.09,0,0,0,1.78-.76c-.06-.76-.09-1.38-.17-2-.48-3.69-2.19-7-3.28-10.49-1.9-6.1-3.71-12.22-5.65-18.31-2.33-7.3-4.76-14.56-7.13-21.85q-3-9.33-6-18.68c-1.41-4.41-2.78-8.83-4.21-13.24-.55-1.67-1.26-3.28-1.78-4.95-3.84-12.36-7.64-24.72-11.5-37.07-.85-2.74-2-5.39-2.84-8.13-3.24-10.7-6.22-21.47-9.67-32.1-2.26-7-4.82-13.86-6.73-21s-4.51-14.32-6.81-21.47c-.24-.74-.58-1.45-.82-2A45.47,45.47,0,0,0,575.85,199.14Zm-407.47-34.3c1.5,8.73,4.42,16.83,7.34,24.93a16.9,16.9,0,0,0,1.38,2.47,16.74,16.74,0,0,0,7.17-1.1c10.22-3.17,20.42-6.39,30.65-9.53,7.79-2.38,15.61-4.64,23.41-7,3.21-1,6.36-2.1,9.57-3.09,4.57-1.41,9.17-2.77,13.76-4.13,5.2-1.55,10.4-3.12,15.62-4.59a15.53,15.53,0,0,0,5.28-2.11,8.93,8.93,0,0,0-.8-5.18,135.18,135.18,0,0,1-5.16-16.95,25.33,25.33,0,0,0-1.84-4.91,1.94,1.94,0,0,0-2.45-1,5.09,5.09,0,0,0-3.75,3.94c-1.11,4-2.27,8-3.54,11.95-.63,1.94-.89,4.06-2.33,5.64a8.63,8.63,0,0,1-1.49.29q-12.72,0-25.42,0a4.44,4.44,0,0,1-1.4-.25c-.26-.1-.64-.48-.6-.64.1-.38.39-1,.64-1,2.22-.17,4.45-.23,6.68-.32,2-.07,4.09.36,6.13-.31-.16-1-.29-1.91-.46-3.07a23.24,23.24,0,0,1,2.6.23c3.27.74,6.53,1.57,9.81,2.27a14,14,0,0,0,2.83,0c1.38-4.82,2.71-9.4,4-14a3.47,3.47,0,0,0,.05-1.4c0-.28-.31-.52-.54-.87-2.43-.31-4.65.77-6.86,1.54a114.36,114.36,0,0,1-17,4.87,24.69,24.69,0,0,0-5,1.58,6.27,6.27,0,0,0-2.05,1.84,10,10,0,0,0-1,1.69c-2.1-.18-3.92-.76-5.52-.4-4.66,1.07-9.25,2.5-13.84,3.85-.49.15-.85.74-1.69,1.52a17.85,17.85,0,0,0,2.7.66c1.27.1,2.55,0,3.83.07.61,0,1.27.26,1.23,1.47a10,10,0,0,1-2.43.64q-6.47.13-13,.1a43.66,43.66,0,0,0-15,2.61c-6.32,2.23-12.51,4.87-19.1,6.31A9.1,9.1,0,0,0,168.38,164.84Zm578.17,1a6,6,0,0,0,.58-1.74c.07-4,.12-8,.06-12,0-2.13-.71-2.8-3-2.81-2.12,0-4.15,0-5.82-1.6a3.09,3.09,0,0,0-1.31-.56c-7.1-1.91-14.17-3.91-21.31-5.68-11.78-2.92-23.62-5.62-35.4-8.54-7.29-1.81-14.45-4.18-21.79-5.72-5.64-1.18-11.23-2.52-16.8-3.95q-5.79-1.5-11.59-3c-2.63-.66-5.28-1.25-7.91-1.93-6.19-1.61-12.36-3.29-18.56-4.84a26,26,0,0,0-5.68-.81c-2.88-.07-5.66.07-8.1-2.07-1-.87-2.66-1-4-1.4-2.76-.81-5.53-1.6-8.29-2.38a16,16,0,0,0-2.32-.56,1.91,1.91,0,0,0-2.24,1.92,10.86,10.86,0,0,0,.27,2.38l4.3,1.14a3.42,3.42,0,0,1-2,.66c-3.33.38-3.74.72-4.59,3.83-.29,1.08-.58,2.17-.82,3.26-.48,2.21-.17,2.94,2,3.54,4,1.1,8.05,2,12.09,3,3.11.73,6.26,1.3,9.36,2.09,13.31,3.41,26.58,7,39.92,10.28,10.86,2.66,21.81,4.93,32.48,8.32a23.08,23.08,0,0,0,6.16.78c5,.17,9.91.17,14.87.28a28.38,28.38,0,0,1,3.06.46,4.56,4.56,0,0,1-3.09,1.1c-.86.14-2-.17-2.32,1.19a4.6,4.6,0,0,0,1.15.74c4.17,1.11,8.35,2.21,12.53,3.25,4.5,1.12,9,2.09,13.52,3.27,7.87,2.07,15.57,4.84,23.71,5.87,1.57.2,3.07.89,4.64,1.21C742.35,165.3,744.26,166.37,746.55,165.86ZM132.2,217.3a3.51,3.51,0,0,0-.37.89c-.1.95-.17,1.91-.19,2.87-.09,5.69.05,5.84,5.86,5.84,12.46,0,24.93-.07,37.39-.07q37.62,0,75.24,0c8,0,16,0,23.95,0,1.71,0,3.53.42,5.16-1a19.49,19.49,0,0,0-.12-8.82c-2.59-1-5.17-.65-7.69-.65q-52.47,0-105,0c-9.75,0-19.49,0-29.24,0C135.52,216.38,133.68,216,132.2,217.3ZM461.45,148c1.45-1.61,1.18-3.26,1.21-4.83.36-18.07.23-21.81-.91-25.3-1.41-.72-3-.46-4.59-.47q-17.24,0-34.46,0c-1,0-1.92,0-2.87,0-2.23.2-3,1.07-3.23,3.35,0,.48,0,1,0,1.44,0,6.86,0,13.72,0,20.58,0,5.13.3,5.38,5.46,5.39q17.7,0,35.41,0C458.89,148.17,460.3,148,461.45,148ZM350,148.14h13.89c2.39,0,4.78,0,7.17-.1a2.24,2.24,0,0,0,2.25-2.09,20.92,20.92,0,0,0,.15-2.86q0-10.29,0-20.59a21.13,21.13,0,0,0-.09-2.39c-.2-1.83-.88-2.48-2.75-2.67-.64-.06-1.28-.05-1.92-.05-12.29,0-24.58,0-36.87,0-4.08,0-4.42.33-4.44,4.32-.05,7.35,0,14.69,0,22a15.77,15.77,0,0,0,.15,2.38,2.07,2.07,0,0,0,1.86,1.89,15.89,15.89,0,0,0,2.39.14Zm46.43,31.28a7,7,0,0,0,.93,1.41c3.58,3.17,7.05,6.48,10.82,9.4s7.84,5,13.09,4.91c20.77-.27,41.54-.11,62.32-.11a31.16,31.16,0,0,0,3.35-.09,6.19,6.19,0,0,0,1.6-.63c-.18-.55-.18-.95-.38-1.12-5.53-4.57-11.06-9.15-16.67-13.63a6.48,6.48,0,0,0-3.08-1.06,34.39,34.39,0,0,0-4.31-.06l-34.51,0q-14.37,0-28.76.06C399.44,178.47,398,178.06,396.4,179.42ZM694.65,414.16a12.57,12.57,0,0,0-2.31-.51c-7.65,0-15.3,0-23,0a6,6,0,0,0-.95.08,2.24,2.24,0,0,0-2.17,2.13,21.13,21.13,0,0,0-.08,2.39q0,13.86,0,27.74c0,1.59-.06,3.19,0,4.78.1,2.13.78,2.82,3,2.86,3.51.06,7,.1,10.52,0,2.51-.1,5.3.87,7.48-.66a44.75,44.75,0,0,0,5.85-5.6,7.55,7.55,0,0,0,2.11-5.65c-.06-8,0-15.95,0-23.92A33.45,33.45,0,0,0,694.65,414.16ZM304.79,170c-1.51,0-2.94,0-4.37,0a7.62,7.62,0,0,0-1.43.14,2.67,2.67,0,0,0-2.29,2.16,18.41,18.41,0,0,0-.3,3.33c0,1.75.11,3.52,0,5.27a5.75,5.75,0,0,1-5.45,5.66c-3.23.38-5-.66-6.28-3.81-.19-.44-.18-1-.47-1.34-.5-.57-1.15-1.37-1.77-1.41a44.91,44.91,0,0,0-7.15,0,4.14,4.14,0,0,0-3.32,2.51c-1.26,3-1.9,6-.13,9.38,2.26,0,4.48,0,6.69.13a9.31,9.31,0,0,1,3.27.53,2.64,2.64,0,0,1,.94,2,1.81,1.81,0,0,1-1.08,1.35c-1.23.29-2.52.24-3.78.41-1,.14-1.87.49-1.93,1.83a4.57,4.57,0,0,0,.73,1.08c3.51,3,7,6.05,10.58,9a8.22,8.22,0,0,0,2.48,1.4,4.53,4.53,0,0,1,3,2.86c.9,2.31,2.86,3.32,5.17,3.74a2.07,2.07,0,0,0,2.45-1.74,21,21,0,0,0,.14-2.86c0-3.84.05-7.68.11-11.51a14.34,14.34,0,0,1,.23-2.86,2.52,2.52,0,0,1,2.3-2.11c1.11-.12,2.23,0,3.35-.11,2.35-.14,4.73.32,7-.21a5.29,5.29,0,0,0,.53-1.49c.05-4.16.12-8.31,0-12.47-.05-2.29-.84-3-3.36-3.08-2.71-.1-5.43,0-8.14,0-.5,0-1.39.2-1.2-1.11a36.16,36.16,0,0,1,6.95-.65c4.62.09,9.25-.14,13.87-.34a2.19,2.19,0,0,0,2.13-2.62,2.89,2.89,0,0,0-3-3c-2.71-.14-5.43-.1-8.15-.08-3.62,0-3.62,0-6.23,2.69ZM327,194.77c1.77.09,3.33.24,4.89.25q22.75,0,45.52,0,10.53,0,21.08,0c.91,0,2,.25,2.67-1.21a20.54,20.54,0,0,0-2-2.2c-4.54-3.75-9.19-7.39-13.66-11.23a6.48,6.48,0,0,0-4.7-1.9c-1,0-1.92,0-2.88,0l-39.76,0c-3,0-6.07,0-9.1.11-1.63.05-2.28.73-2.55,2.29A69.8,69.8,0,0,0,327,194.77ZM214.21,411.9a29.65,29.65,0,0,0-3.35-.52c-3.67-.06-7.34-.09-11,0-4,.06-4.41.49-4.53,4.38,0,.16,0,.32,0,.48q0,16.53,0,33.07c0,1.6,0,3.2.14,4.79a2,2,0,0,0,1.83,1.92,12.21,12.21,0,0,0,1.91.16c5.11,0,10.22,0,15.33,0a11.8,11.8,0,0,0,2.27-.48c1.12-3,.55-5.8.59-8.58l-3.17-2.62c0-5.27,0-10.53,0-15.8S214.31,417.79,214.21,411.9ZM611.3,324.55c-1,.51-1.73.82-2.4,1.23-5.84,3.58-11.63,7.26-17.53,10.74s-11.69,6.52-17.44,9.94-11.65,7.21-17.48,10.82c-.54.33-1.11.62-1.66.94-3.2,1.79-6.4,3.57-9.59,5.38-1.79,1-3.51,2.2-5.34,3.15-4,2.07-4.18,2.89-1.3,6.35a18.76,18.76,0,0,0,1.81,1.68c2.6-.91,5.42-1.37,7.6-2.79,3.09-2,6.23-3.84,9.42-5.64,6.37-3.61,12.56-7.51,18.85-11.25,3.29-2,6.62-3.84,9.93-5.76q10.32-6,20.65-12c1.92-1.12,3.81-2.31,5.71-3.49a2.56,2.56,0,0,0,1.47-2.78C613.46,328.94,613.2,326.67,611.3,324.55ZM466.68,409.94a11.07,11.07,0,0,0,5.34-2c4.16-2.66,8.43-5.13,12.67-7.65q11.71-7,23.5-13.78c8.26-4.77,16.38-9.78,24.78-14.82-.33-2.82-2-5-4.43-7.29-2.3,1.49-4.78,2.48-7,3.95-3.21,2.06-6.33,4.3-10.08,5.39a12.85,12.85,0,0,0-2.94,1.57c-5.73,3.48-11.42,7-17.17,10.45-4.79,2.85-9.67,5.57-14.49,8.38q-6.39,3.75-12.72,7.6a10.22,10.22,0,0,0-1.66,1.77C463.71,405.88,464.33,408.41,466.68,409.94Zm-181-181.17v-.08c-4,0-8-.07-11.95,0-2.11.05-2.87.83-2.92,3-.11,4.14-.1,8.29,0,12.43a4.3,4.3,0,0,0,.79,2.67c2.79,3.12,5.81,6,10.4,6q10,.06,20.08.06a9.8,9.8,0,0,0,1.43-.08,4,4,0,0,0,1.38-.34c.39-.22,1-.78.93-.94a2.29,2.29,0,0,0-1.09-1.23c-1.17-.4-2.77,0-3.39-1.34a12.65,12.65,0,0,1-.8-3.66,17.3,17.3,0,0,1,0-2.39c0-3.35,0-6.69,0-10-.07-3.57-.56-4-4.28-4.06C292.7,228.73,289.2,228.77,285.69,228.77ZM899.75,67.28c-1.42-.13-2.67-.33-3.93-.33q-14.85-.06-29.72,0c-.8,0-1.6,0-2.4.07-1.37.15-2.2.76-2.23,2-.11,4.47-.13,9,0,13.41,0,1.48.94,2.12,2.59,2.28.79.07,1.59.06,2.39.06h28.76a24,24,0,0,0,2.4-.08c2.08-.2,2.76-.84,2.85-3.07.11-2.87.12-5.75.07-8.63C900.47,71.28,900.75,69.49,899.75,67.28ZM486.86,118.11a10.45,10.45,0,0,0-2-.67c-5.74-.06-11.48-.14-17.22-.09-2.17,0-3.05,1-3.07,3.39q-.12,12,0,23.92c0,2.73.68,3.36,3.47,3.38,5.74,0,11.48-.06,17.21-.14.42,0,.83-.38,1.55-.73C487.14,137.58,487.12,127.91,486.86,118.11ZM327.22,169.4c1-3.57,1.15-3.39,4.53-5.19,2.09-1.1,3.77-1.32,5.76,0a18.94,18.94,0,0,0,3.27,1.45c.87,2,.2,4.1,1.53,5.76.33.42-.05,1.5-.26,2.23a13.17,13.17,0,0,1-1,2,8.47,8.47,0,0,0,1.73.44q16.56,0,33.1-.06a5,5,0,0,0,1.57-.56c0-.6.05-1-.08-1.2-1-1.81-2.71-2.46-4.56-3.18a5,5,0,0,1-1.43-8.54c1.19-1.06,2.59-1.87,3.83-2.88a8.3,8.3,0,0,0,1.17-1.87,27.38,27.38,0,0,0-3.13-.44c-9.11,0-18.22,0-27.34,0-4.16,0-8.31,0-12.47-.09a5.9,5.9,0,0,0-5.5,3.2,10.75,10.75,0,0,0-1.51,7.81C326.5,168.64,326.9,169,327.22,169.4Zm136.65-11.49a27.22,27.22,0,0,0-3.77-.61q-19.41-.06-38.83,0c-4,0-6.15,1.83-7,5.82a6.83,6.83,0,0,0,.46,2.32l8.11-2.51c.73.55,1.42,1.46,2.26,1.63,3.09.62,3.76,2.61,4.17,5.45a16.08,16.08,0,0,1-.44,5.54,15.53,15.53,0,0,0,5.91.62q11.5,0,23,0c1.6,0,3.2,0,4.79-.09a8.46,8.46,0,0,0,2.05-.71c-.52-2.75-2.23-3.53-4.39-4.11-2.59-.7-3.58-2.38-3.48-5a4.86,4.86,0,0,1,2.24-4C460.5,161.11,462.34,160.38,463.87,157.91ZM195.52,200.35c1.11-.16,1.89-.26,2.66-.39,4.11-.69,7.91-2.41,11.86-3.64,2.29-.72,4.55-1.42,6.31-3.2a4.66,4.66,0,0,1,2.07-1.12,32.53,32.53,0,0,0,9.3-3.65,2.8,2.8,0,0,1,3.18-.26c2,1.48,3.83,1,5.87.22,2.54-.92,5.19-1.55,7.77-2.36,4.87-1.52,9.73-3.06,14.57-4.66a23.6,23.6,0,0,0,2.94-1.46,15.33,15.33,0,0,0-.51-1.54,14.18,14.18,0,0,1-.73-1.23,4.77,4.77,0,0,1,2.06-5.36,4.44,4.44,0,0,1,4.43.92c.57.54.89,1.34,1.45,1.89a7.69,7.69,0,0,0,1.75.94,5.1,5.1,0,0,0-.58-5.21,2.19,2.19,0,0,0-2.5-1,50.52,50.52,0,0,0-6.79,2.26,106.23,106.23,0,0,1-20.47,6.52c-1.56.37-3.11.75-4.63,1.22-6.25,1.92-12.47,3.88-18.72,5.81-4.71,1.45-9.51,2.62-14.07,4.62-2.74,1.2-5.79,1.7-8.71,2.51-.74.2-1.63.07-2.06,1.26a20.55,20.55,0,0,1,2.13,2.87A31,31,0,0,1,195.52,200.35Zm72-68.57c.91-4,3.44-7.27,2.15-11.45a21.21,21.21,0,0,0-7.58,1.46c-5.88,2-11.66,4.37-17.9,5.17a18.9,18.9,0,0,0-3.18,1q-10.68,3.48-21.37,6.94c-2.12.68-4.29,1.23-6.38,2-.57.22-.93,1-1.56,1.76a11.51,11.51,0,0,0,2,1c4.5,1.06,9,2.13,13.53,3a8.57,8.57,0,0,0,3.77-.13c5.4-1.4,10.77-2.91,16.14-4.44,5.05-1.44,10.09-2.94,15.12-4.46C264,133.13,265.63,132.47,267.56,131.78Zm289.15-27.59c-1.06-.83-1.37-1.26-1.77-1.36-5.24-1.39-10.45-2.89-15.75-4-6.54-1.42-13.05-2.94-19.44-5-2.74-.86-5.48-1.72-8.26-2.41-2.41-.59-3.8,0-4.64,2.22a72.7,72.7,0,0,0-2.36,8.25c-.11.43.46,1,.84,1.8l3.41-2.44c1.91.6,3.53,1.14,5.17,1.61,1.19.35,2.13,1,2.05,2.31-.12,1.82,1.29,2.85,1.85,4.31s1.77,2,3.41,2c4-.08,8,.05,11.94,0,3.65,0,7.3-.2,11-.3a11.21,11.21,0,0,0,1.13-1.63,6.61,6.61,0,0,1,5.23-3.7C552.37,105.52,554.17,104.89,556.71,104.19ZM521.86,87.32c.51-1.38,1.07-2.68,1.47-4q2.65-9,5.22-17.92c.62-2.13,1.36-4.28.08-6.69-4.93-1.44-10-2.93-15-4.38-.27-.08-.61.08-1.18.17-3.48,8.32-4.4,17.41-6.54,26.18a12.58,12.58,0,0,0,0,2.82c4.68,2,9.41,2.79,14,4.09A6,6,0,0,0,521.86,87.32Zm255.62,34.21a6.74,6.74,0,0,0-1.53-.94c-4.48-1.11-9-2.24-13.46-3.22-1.78-.39-2.51.25-3,2.19q-3.12,11.79-6.21,23.58a6.38,6.38,0,0,0-.27,1.41,2,2,0,0,0,1.54,2.14,9.37,9.37,0,0,0,2.35.37c4,.06,8,.1,12,.05a8.92,8.92,0,0,0,2.39-.82C773.29,138.07,775.36,129.92,777.48,121.53ZM165.77,155.35c-.6,1.82.38,3.41.93,5s1.5,1.94,3,1.42c3.18-1.07,6.4-2.05,9.48-3.37,5.73-2.45,12.14-2.84,17.65-5.92a6.21,6.21,0,0,1,1.4-.29c6.64-1.71,13.28-3.4,19.91-5.15a19.38,19.38,0,0,0,3.11-1.24c.64-.29,1.58-.37,1.51-1.56-2.72-1.75-5.9-2.24-9-2.93-1.56-.35-3.11-.46-4.25-1.84-.84-1-2-.71-3.13-.42-3.39.88-6.8,1.75-10.19,2.65-1.08.28-2.13.65-3.2,1-7.3,2.33-14.36,5.4-21.92,6.91a5.81,5.81,0,0,0-3.88,2.37c2.08.09,3.79.21,5.5.24,2.87,0,5.75,0,8.62,0a5.25,5.25,0,0,1,1.81.46c.18.08.23.52.28.81a.5.5,0,0,1-.22.4,9.6,9.6,0,0,1-2.28.5c-3.67,0-7.34,0-11,0C168.51,154.51,167,154.26,165.77,155.35Zm210.59-7.86c2.66.61,11.47.9,13.44.5a2.33,2.33,0,0,0,2-1.84,15.09,15.09,0,0,0,.23-2.85q0-10.52,0-21a18,18,0,0,0-.2-2.85,2,2,0,0,0-1.84-1.92,91.72,91.72,0,0,0-13.36.1,9.18,9.18,0,0,0-.83,2.45q-.11,12.66-.06,25.33A7.18,7.18,0,0,0,376.36,147.49Zm397.45,46.87a6.18,6.18,0,0,0,.45-1.68c0-3.67,0-7.34,0-11a6.11,6.11,0,0,0-.23-1.41,2.18,2.18,0,0,0-2.07-1.7c-1.59-.11-3.19-.1-4.78-.1-4.63,0-9.26-.06-13.89,0-3,.05-3.57.67-3.63,3.74-.07,3.35,0,6.7,0,10.05a12.58,12.58,0,0,0,.59,2.5c6.35.53,12.54.18,18.73.28C770.55,195.08,772.17,195.33,773.81,194.36Zm-558.07,16c1.25.1,2.51.28,3.77.28,4.79,0,9.6-.27,14.37,0,5,.33,9.38-1.52,13.78-3.38.23-.1.33-.52.57-.94a27.09,27.09,0,0,1-1.16-2.93,2.24,2.24,0,0,1,1.39-2.71,2.38,2.38,0,0,1,3,1.71,21,21,0,0,1,.2,3.18c2.39.62,3.92-.46,5.27-1.9,3.29-3.47,6.52-7,9.82-10.46a5.68,5.68,0,0,0,1.87-4.25,17.1,17.1,0,0,1,2.36-8.68c.33-.62,1.1-1.25.11-2.3a13.55,13.55,0,0,0-3.85,3.36q-6.07,6.47-12.06,13c-2.76,3-5.85,5.38-10.13,5.82a23,23,0,0,0-4.13,1.17c-6.12,1.82-12.25,3.61-18.36,5.47C220.15,207.52,217.68,208.07,215.74,210.32Zm590-24.19c1.23.09,2.48.27,3.72.27q29.43,0,58.85,0a26.74,26.74,0,0,0,3.35-.15,2.28,2.28,0,0,0,2-2.31c.16-2.16-.77-3.28-2.94-3.47-.79-.07-1.59,0-2.39,0l-58.38,0c-1.4,0-2.8.19-4.09.28A5.22,5.22,0,0,0,805.74,186.13ZM262,229.51a10.41,10.41,0,0,0-6.17-.71,2.11,2.11,0,0,0-1.91,2.34c0,.79.23,1.57.31,2.36.83,8.26,2.17,16.45,2.49,24.77.2,5.09.94,10.17,1.36,15.26.29,3.59,1.32,4.28,5,3.79a9.75,9.75,0,0,0,1.39-.35c1.78-.54,2.42-1.27,2.27-3.11-.22-2.87-.61-5.72-.93-8.57-.86-7.45-1.74-14.9-2.56-22.35C262.82,238.51,262.46,234.08,262,229.51Zm211,181.23c4.41.79,6.69.84,8.7-.08a70,70,0,0,0,6.39-3.28c5.89-3.49,11.72-7.1,17.59-10.63,3.28-2,6.6-3.87,9.89-5.81l5.36-3.15c4.8-2.84,9.63-5.66,14.41-8.55,1.51-.91,1.71-2.07.68-3.66a14,14,0,0,0-1.88-2,9.32,9.32,0,0,0-1.53.57q-9.18,5.63-18.34,11.29a29.91,29.91,0,0,1-2.9,1.68c-6.39,2.94-12,7.24-18.2,10.5-2.4,1.26-4.66,2.79-7,4.19-4.23,2.55-8.46,5.09-12.68,7.66C473.36,409.63,473.33,410.05,473.05,410.74ZM746.7,110.45c-.48-1.69-1.77-1.69-2.76-2-5.81-1.75-11.52-3.82-17.59-4.61a57.08,57.08,0,0,1-6.53-1.5c-6.66-1.67-13.2-3.8-20.08-4.52a20.09,20.09,0,0,1-3.71-.91c-6.11-1.87-12.2-3.8-18.32-5.61a29.82,29.82,0,0,0-6.1-1.21A48.28,48.28,0,0,1,661.79,88c-4-1.18-7.92-2.63-12-3.32-9.48-1.62-18.53-4.79-27.77-7.27-2.61-.69-5.3-1.1-7.95-1.63-2.34-.47-4.72-.81-7-1.42-7.7-2.07-15.33-4.43-23.18-5.94-.93-.18-1.84-.49-2.76-.75-6.46-1.82-12.91-3.66-19.38-5.46a12.39,12.39,0,0,0-6.59-.42,8,8,0,0,0,2.92,1.5c8.42,2.47,16.75,5.3,25.42,6.82,1.73.3,3.42.81,5.12,1.23,5.58,1.35,11.16,2.73,16.75,4,2.48.58,5,.84,7.48,1.53,4.76,1.35,9.45,2.92,14.19,4.34,2.14.63,4.31,1.17,6.49,1.68,4.66,1.08,9.37,2,14,3.2,6,1.6,12,3.28,18.23,4a21.17,21.17,0,0,1,3.69,1c6.11,1.85,12.21,3.75,18.33,5.59a23.38,23.38,0,0,0,4.2.94,79.5,79.5,0,0,1,14.48,3.12,123.5,123.5,0,0,0,13,3.13c3.91.72,7.71,2,11.56,3.1,4.31,1.18,8.61,2.4,12.94,3.51A10.43,10.43,0,0,0,746.7,110.45ZM280.51,279.29c-3.07-3.05-3.07-3.05-3.08-7,0-4.95-.09-9.9,0-14.84a4.92,4.92,0,0,0-2.13-4.51c-1.43-1-2.8-2.12-4.13-3.26a6.6,6.6,0,0,1-2.49-5.46c.07-2.23.05-4.46,0-6.7s-.08-4.46-.22-6.68a1.28,1.28,0,0,0-.89-.86,1.22,1.22,0,0,0-.87.84c-.23,1.71.12,3.67-.59,5.11-1.25,2.5-1.1,4.93-.77,7.46.65,4.9,1.59,9.78,2,14.7.6,7.25,2.43,14.4,1.63,22,3.26.68,6.42.32,9.55.14C279.07,280.27,279.59,279.77,280.51,279.29ZM135.18,210c12.18.56,24.26.59,36.85.49-.1-3.47,2.49-3.77,4.82-4.37,1.24-.32,2.51-.51,3.73-.87a13.24,13.24,0,0,0,2-1,5.9,5.9,0,0,0,0-1.6c-.69-2.1-1.44-4.17-2.23-6.42a19.42,19.42,0,0,0-2.45.39c-8.7,2.61-17.37,5.29-26.08,7.87-2.59.76-5.26,1.26-7.89,1.89A23,23,0,0,0,135.18,210Zm751.28-26.3h0c0-4.15.07-8.3,0-12.45,0-2.11-.8-2.78-3-2.92a42.35,42.35,0,0,0-4.78,0c-2.62.16-3.33.83-3.42,3.57-.14,4-.1,8-.11,12s0,8,.08,12c.07,2.21.79,2.9,2.86,3a44,44,0,0,0,5.26.08c2.4-.1,3.06-.77,3.11-3.27C886.52,191.7,886.46,187.71,886.46,183.72ZM405,147.68c1.3.17,2.38.4,3.47.44a25.63,25.63,0,0,0,3.82-.1,2.49,2.49,0,0,0,2.39-2.55,34.75,34.75,0,0,0,.13-3.82c0-5.75-.09-11.5,0-17.25.14-7.57-.31-7.35-8.1-6.94a2.42,2.42,0,0,0-.47.07,2.31,2.31,0,0,0-1.82,2,7.61,7.61,0,0,0-.13,1.43c0,7.82,0,15.65,0,23.47A16.78,16.78,0,0,0,405,147.68ZM788.69,189v0c2.23,0,4.47-.07,6.7,0,8.56.31,7.54-.5,7.34-8.58a3.94,3.94,0,0,0-.1-.47,2.39,2.39,0,0,0-1.89-1.92,8.07,8.07,0,0,0-1.89-.28c-6.38,0-12.76-.06-19.14.05-2.87,0-3.47.84-3.56,3.89a41.28,41.28,0,0,0,.05,4.31c.16,2.22.77,2.89,2.92,2.94C782.31,189.05,785.5,189,788.69,189ZM412.33,386.11c1.21,4.6,2.18,8.62,3.34,12.59,1,3.36,2.19,6.67,3.33,10a3.46,3.46,0,0,0,3.61,2.55c2.88,0,5.75,0,8.62-.06a5.48,5.48,0,0,0,1.9-.84,5,5,0,0,0-.2-1.24c-4.19-7.34-8.36-14.7-12.63-22-.85-1.45-1.5-3.21-3.68-3.94ZM225.61,228.62H210.79c-1.28,0-2.56,0-3.83.14-2.11.2-2.73,1.5-1.47,3.29a21,21,0,0,0,2.84,3.19c1.16,1.1,2.58,1.92,3.65,3.08,1.68,1.81,3.49,1.8,5.66,1.11,4.69-1.51,9.46-2.79,14.16-4.3,4.09-1.31,8.13-2.77,12.16-4.26.42-.15.72-.88.87-1.4,0-.14-.66-.68-1.05-.73a30.89,30.89,0,0,0-3.34-.12Zm74.18,46.45a27.48,27.48,0,0,0,.38-3c.05-4.14.05-8.28,0-12.42a15.85,15.85,0,0,0-.23-2.84,2.07,2.07,0,0,0-.78-1.13,3,3,0,0,0-4.67,2,26.57,26.57,0,0,0-.1,3.34c.05,2.55.21,5.09.19,7.64,0,2.81-1.77,4.4-4.56,4.34-2.6-.07-4.26-1.39-4.48-4s-.14-5.41-.21-8.11a19.18,19.18,0,0,0-.22-3.8,2.56,2.56,0,0,0-1.48-1.62c-2.32-.68-4.16-.13-4.16,2.82,0,4.93,0,9.87.05,14.81a7.49,7.49,0,0,0,.59,2.1C284.35,275.9,296,275.86,299.79,275.07ZM266.65,283c-.29,2.09-.52,3.75-.76,5.45a8.64,8.64,0,0,0,1.63.37c7.16,0,14.32.06,21.48,0a11.71,11.71,0,0,0,4.12-1c3.31-1.36,4.53-3.57,4.19-7.18-.17-1.76-1-2.73-2.67-2.77a58.49,58.49,0,0,0-10.56.26c-1.4,4.21-4.65,4.93-8.4,4.75-1.59-.07-3.18-.1-4.77-.08C269.66,282.8,268.4,282.92,266.65,283ZM767.14,154.86a143.77,143.77,0,0,0-16.46-4.46c-.39.76-.9,1.28-.91,1.82a123,123,0,0,0,.09,14.86A55.64,55.64,0,0,0,764,170.65a18.27,18.27,0,0,0,1.39-3.65C766,163.12,767.55,159.37,767.14,154.86Zm-449.59-7.4a8.77,8.77,0,0,0,5,.6c1.5-.1,2.19-.88,2.38-2.46a7.72,7.72,0,0,0,.05-1c0-8,0-16-.06-23.95a13.4,13.4,0,0,0-.8-3.12c-1.56-.08-2.83-.24-4.09-.2-2.41.06-3.13.74-3.14,3.18q-.07,12,0,24A13.31,13.31,0,0,0,317.55,147.46ZM884,111.51h0c0-4.3.06-8.61,0-12.91-.05-2.44-1.3-3.31-3.78-2.9-1.36.22-2.06.83-2.19,2.11a30.89,30.89,0,0,0-.12,3.34q0,10.27,0,20.55c0,1,0,1.91.06,2.86.18,2.06,1.05,2.82,3.08,2.79s2.9-.83,2.95-2.94C884,120.11,884,115.81,884,111.51ZM261.23,183.78c-.13-.1-.29-.3-.39-.27-3.35.94-6.94,1.45-10,3a66.72,66.72,0,0,1-9.19,3.91c-1.43.48-2.62,1.19-2.66,3a2.66,2.66,0,0,1-1.6,2.22c-1.09.62-1.86,1.63-1.08,2.71.42.58,1.67.62,2.57.77a2.77,2.77,0,0,0,1.4-.24c4.26-1.61,9.06-2.1,12.24-6,.39-.47,1.12-.65,1.55-1.1,2.42-2.5,4.8-5,7.18-7.57C261.33,184.15,261.24,183.93,261.23,183.78ZM424.34,379.19c-2,.05-3.13,1.53-2.54,3a25.33,25.33,0,0,0,2.07,3.74c1.69,2.71,3.51,5.34,5.13,8.09,2.51,4.25,4.89,8.58,7.34,12.87.79,1.37,2,1.73,3.18,1a2.4,2.4,0,0,0,1-3.62c-.15-.28-.34-.54-.5-.82q-6-10.32-12.07-20.64a13.88,13.88,0,0,0-1.87-2.75A5.07,5.07,0,0,0,424.34,379.19Zm459-248.82a6.59,6.59,0,0,0-1.49-.51c-3-.24-3.77.28-3.85,3.27-.16,5.25-.13,10.5-.18,15.75a5,5,0,0,0,.11,1,2.29,2.29,0,0,0,1.84,1.94c2.63.61,4.1-.32,4.15-3,.09-5.41,0-10.82,0-16.23A9.23,9.23,0,0,0,883.35,130.37ZM134.71,213.24v.86q70.65,0,141.3,0c.26,0,.53-.26.95-.48a6.91,6.91,0,0,0-1.45-.34Q205.11,213.23,134.71,213.24Zm85.15-16.35c-2.69.83-5,1.52-7.23,2.25s-4.7.82-7,2.29a26.24,26.24,0,0,0,0,2.81c.35,3.25,1.32,3.93,4.36,3.15,2.78-.71,5.58-1.39,8.34-2.21,2.44-.72,4.86-1.56,7.24-2.49a1.81,1.81,0,0,0,.88-1.49c0-.47-.75-1.25-1.16-1.24C223.05,200,221.41,198.93,219.86,196.89Zm-27.43,64.84c.59-.2,1.34-.44,2.08-.71,3.44-1.26,6.8-2.92,10.35-3.72,8.93-2,17.1-6.21,25.93-8.46.31-.08.59-.24.89-.35,5.83-2.14,11.42-5,17.66-6a3.61,3.61,0,0,0,1.77-.68c.4-.34.51-1,.76-1.54-.43-.15-.9-.5-1.28-.42a13.25,13.25,0,0,0-2.22.83,23.92,23.92,0,0,1-4.94,1.81c-5,.71-9.5,2.72-14.16,4.37-6.62,2.34-13.31,4.51-19.88,7a70,70,0,0,1-12.79,3.93,20.44,20.44,0,0,0-4,1.45,2.75,2.75,0,0,0-1.05.9,1,1,0,0,0,0,.87C191.6,261.31,192,261.42,192.43,261.73ZM298.36,219.9v-.06c-2.55,0-5.11,0-7.66,0a22.73,22.73,0,0,0-2.86.13,2.41,2.41,0,0,0-2.26,2.6c-.08,1.71.74,2.84,2.45,2.89,4,.11,8,.1,12,.06a4.22,4.22,0,0,0,2.27-.6,7.32,7.32,0,0,1,6.83-.81c1.4.43,2.31-.89,1.82-2.36a2.47,2.47,0,0,0-2.51-1.84C305.06,219.88,301.71,219.9,298.36,219.9ZM439.64,115.2v0h17.75a24.75,24.75,0,0,0,3.34-.18,1.39,1.39,0,0,0,.88-.93,1.27,1.27,0,0,0-.67-1,24.45,24.45,0,0,0-4.25-.46q-16.8,0-33.59,0c-1.12,0-2.24,0-3.35.14a2.89,2.89,0,0,0-1.31.53,1,1,0,0,0-.35.8c0,.27.29.68.51.72a19.1,19.1,0,0,0,3.28.41C427.8,115.22,433.72,115.2,439.64,115.2Zm310.52-.77a11.48,11.48,0,0,0-.39,2.39c.1,1.42.3,2.85.53,4.26.32,1.88.73,3.75,1.06,5.63s.48,3.44-.93,4.93a3.51,3.51,0,0,0-.72,2.21c0,3.34,0,6.68.14,10,0,.17.43.32.67.48,1-.23.91-1.14,1.08-1.86.76-3.25,1.47-6.52,2.26-9.78,1-4,1.86-8.08,3.07-12,1.39-4.54.21-4.94-3.59-5.86A27.84,27.84,0,0,0,750.16,114.43Zm-400,.75h0c5.57,0,11.15.07,16.72,0,1.77,0,3.81.81,5.28-1-1.2-2.54-3.55-1.54-5.4-1.56-11-.1-22,0-33,0-1.11,0-2.23,0-3.33.15a3.17,3.17,0,0,0-1.31.52,1,1,0,0,0-.4.79c0,.26.25.7.45.74a18.17,18.17,0,0,0,3.27.41C338.39,115.2,344.28,115.18,350.17,115.18Zm211.65,9.3c1,1.89,2,3.65,2.76,5.52,1.38,3.45,3.73,6.29,5.59,9.43.34.56,1.16.83,2.56,1.76.36-5.19,2.59-9.32,2.41-13.87C570.1,125.16,564.94,124.05,561.82,124.48ZM388.58,150.29a13.31,13.31,0,0,0-2.2-.6q-10.72,0-21.45,0a4.93,4.93,0,0,0-1.86.33,1.49,1.49,0,0,0-.88,1,2.57,2.57,0,0,0,.4,1.74,3,3,0,0,0,1.65.81c1.08.22,2.36,0,3.26.48,3.9,2.16,8.06,1.39,12.14,1.31C383.18,155.21,385.77,153.26,388.58,150.29Zm87.18-.18a20.77,20.77,0,0,0-2.8-.47c-6.68,0-13.35,0-20,0a13.47,13.47,0,0,0-1.9.12,1.7,1.7,0,0,0-1.64,1.44,1.89,1.89,0,0,0,1.45,2.14c1.4.27,3,.08,4.18.72,2.69,1.48,5.51,1.14,8.34,1.35C468.14,155.78,472.1,154.38,475.76,150.11ZM278.89,176.9c.85.32,1.42.75,1.95.7,3-.27,5,.64,5.13,4a1.83,1.83,0,0,0,.12.46,2.39,2.39,0,0,0,2.44,1.86,26.13,26.13,0,0,0,3.31-.19,2.39,2.39,0,0,0,2.15-2.21,46.92,46.92,0,0,0,.14-4.75c0-4.57-1.39-5.87-6-5.62a10.51,10.51,0,0,0-2.81.45C282.65,172.51,280.21,173.79,278.89,176.9Zm24.67,39.17a13,13,0,0,0,6-.14c.75-.23,1.29-.93.66-2.19-.8.29-1.62.6-2.44.92a2.41,2.41,0,0,1-2.79-3.13,9.14,9.14,0,0,1,1.68-1.75c1.61-.08,2.44,1.64,4.06.67.61-3.51.2-7.13-.07-10.74,0-.36-.41-.69-.74-1.21-.14.53-.23.79-.28,1.06-.41,2-1.57,3.08-3,2.86-1-.16-1.69-1.18-1.79-2.92,0-.61.26-1.27-.9-1.7-.36.44-1.15,1-1.16,1.5-.09,4.92-.07,9.85,0,14.77A7,7,0,0,0,303.56,216.07Zm19.18-21.34a10,10,0,0,0,.61-2.27c0-3.64.08-7.28,0-10.92-.07-2.39-.87-3-3.23-3s-3.13.69-3.2,3.09c-.1,3.32-.1,6.65,0,10s.76,3.91,4,3.71A10,10,0,0,0,322.74,194.73ZM201.41,209.78c.62-2.62-.2-4.65-2.47-6.47-6.52,1.84-13.1,3.68-19.68,5.57-.37.1-.64.57-1.27,1.15a10.79,10.79,0,0,0,2,.46q10,0,20.1-.1C200.5,210.39,200.92,210,201.41,209.78Zm698.4-146c-1.38-2.32-3.09-2-4.62-2-5.09,0-10.19,0-15.28,0-4.93.06-9.86.2-14.8.38a12.11,12.11,0,0,0-2.58.72c.08.41.06.6.15.72s.4.61.6.61q17,.18,33.89.25A12.47,12.47,0,0,0,899.81,63.77Zm-596.21,170c-.39.6-.69.85-.7,1.12-.08,3.5-.14,7-.14,10.5a3.79,3.79,0,0,0,.52,1.79c.48.81,1.25.86,2.3.27-.18-.67-.38-1.38-.57-2.1a2.1,2.1,0,0,1,1-2.45,2.37,2.37,0,0,1,2.69.1,1.88,1.88,0,0,1,.95,2.42c-.2.65-.46,1.29-.72,2,1.78.17,1.92-1,2-1.85.14-3,.16-6,.15-9.07a12.06,12.06,0,0,0-.43-2.22C306.9,235.35,306.9,235.35,303.6,233.75ZM571,146.45a4.28,4.28,0,0,0-.16-1.31,20.37,20.37,0,0,0-1.54-3c-4.29-6.55-7.88-13.48-11.51-20.4a16.18,16.18,0,0,0-2.35-3,.91.91,0,0,0-.89,0,2.09,2.09,0,0,0-.84,1,1.89,1.89,0,0,0,.28,1.35,82.48,82.48,0,0,1,6,10.85c1.75,3.58,3.91,6.95,5.93,10.39a35.85,35.85,0,0,0,2.6,4A1.42,1.42,0,0,0,571,146.45Zm307.13,55A55.44,55.44,0,0,0,878,212a2.51,2.51,0,0,0,2.8,2.59c1.91,0,3-.93,3.13-2.85.12-2.7.08-5.41,0-8.11a13.11,13.11,0,0,0-.57-2.54A5.07,5.07,0,0,0,878.14,201.46ZM312.63,251c-2.19.33-2.86.68-3.12,1.71a10.92,10.92,0,0,0-.34,2.35c-.12,3.94.42,7.91-1.24,11.76-.76,1.76.77,3.35,2.81,3.49,1.62.11,2.37-.63,2.4-2.77.06-4.94,0-9.88,0-14.82A6.34,6.34,0,0,0,312.63,251ZM389.4,178c-.53.28-1,.37-1,.58-.13.4-.23,1.08,0,1.29,2,1.85,4,3.69,6.06,5.42,4.55,3.75,9.15,7.43,13.74,11.13.61.5,1.22,1.07,2.09.45a1.71,1.71,0,0,0,0-2.54,7.07,7.07,0,0,0-.69-.65c-5.92-4.87-11.82-9.76-17.78-14.58A10.07,10.07,0,0,0,389.4,178Zm87.24-.16c-.53.27-1,.35-1,.57-.14.4-.27,1.07-.06,1.28,1.69,1.69,3.38,3.39,5.22,4.9,4.56,3.74,9.2,7.39,13.81,11.07.25.2.49.41.75.58s.59.47.83.43a3.52,3.52,0,0,0,1.63-.66,1.31,1.31,0,0,0-.11-1.26c-1.52-1.4-3.12-2.72-4.71-4-4.67-3.88-9.33-7.77-14-11.61A12.38,12.38,0,0,0,476.64,177.88ZM476,153.81c-4.37,1.39-7.82,4.46-11.42,7.24-1.3,1-1.09,2.6.21,3.66a2.46,2.46,0,0,0,3.46.06c2.91-2.17,5.78-4.41,8.55-6.76C478.56,156.53,478.41,156.09,476,153.81Zm-85.16,2.86c-1.51-2.67-2.07-3.11-3.63-2.18-3.12,1.87-6.12,3.95-9.11,6a10.61,10.61,0,0,0-1.75,1.95,4.28,4.28,0,0,0,3,3.09C383.76,163.42,387.25,160.23,390.85,156.67ZM292.29,263.44h-.06c0-2.07.09-4.15,0-6.21-.09-1.39-1.32-2.1-2.8-1.85a2.15,2.15,0,0,0-2,2.24c-.1,3.18-.13,6.37,0,9.55a6.57,6.57,0,0,0,.93,2.67,2.15,2.15,0,0,0,2.3,1.36,2,2,0,0,0,1.71-2C292.36,267.26,292.29,265.35,292.29,263.44ZM878.44,154.93a24.72,24.72,0,0,0-.59,7.81c0,2.56,1,3.37,3.56,3.25,1.59-.08,2.39-.69,2.46-2.31.11-2.38.08-4.77,0-7.14a2,2,0,0,0-2.18-2.07A17.84,17.84,0,0,0,878.44,154.93ZM573.75,144.67c-.09,1.51.62,2.54,1.72,2.66s1.68-.81,1.92-1.73q1.22-4.86,2.29-9.76.68-3,1.18-6.09a1.53,1.53,0,0,0-1-1.89,1.81,1.81,0,0,0-2.21,1.29c-.11.3-.18.61-.26.91-1,3.54-1.93,7.06-2.83,10.6C574.17,142.05,574,143.47,573.75,144.67ZM672.9,456.4a3.93,3.93,0,0,0,3,3.38,15.54,15.54,0,0,0,9,.34,9.24,9.24,0,0,0,5-3.49c.76-.95,1.6-2,1.11-3.37-.48.08-.89,0-1,.19-2.1,2.42-4.8,2.74-7.8,2.61A40.51,40.51,0,0,0,672.9,456.4ZM583.16,164.73c-1.78-3.18-3.33-6.12-5-9-1-1.62-2.46-2-3.6-1.28s-1.49,2.09-.66,3.83c1.1,2.29,2.34,4.52,3.62,6.72a16.75,16.75,0,0,0,1.95,2.23Zm-15.52-59.66c-.73-.18-1.22-.46-1.62-.36-4,.91-8,1.86-12,2.88-.51.13-.92.69-1.37,1,1.55,2.06,1.6,2.21,2.45,2.26a25.17,25.17,0,0,0,8.94-.62C566.43,109.57,567.85,108.12,567.64,105.07Zm3.18,54.08c-1.52,4.94-2.66,9.67-3.72,14.42a1.76,1.76,0,0,0,0,.94c.15.41.36,1,.68,1.11a2.56,2.56,0,0,0,1.77-.05,2.63,2.63,0,0,0,1.2-1.36A36.39,36.39,0,0,0,573,162.63,3.13,3.13,0,0,0,570.82,159.15ZM423.74,204.33c-2.37-3.16-6-4.88-9.35-6.84-.32-.19-1.18.26-1.63.62a1.5,1.5,0,0,0-.47,2.11c2.51,2.82,4.88,5.85,8.69,7.46C422.17,206.9,423.33,206.16,423.74,204.33Zm77.06-7.52-1.76,3c1.26,1.4,2.25,2.65,3.41,3.73a48,48,0,0,0,4.11,3.28,2.13,2.13,0,0,0,3-.21,16.15,16.15,0,0,0,1.56-2.32A50.49,50.49,0,0,0,500.8,196.81ZM442.05,410.62a6.86,6.86,0,0,0,6.2-.21c1.57-.78,3.15-1.53,4.68-2.37a19.68,19.68,0,0,0,2.78-1.84c1.34-1.06,1-2.73-.64-3.39a3.27,3.27,0,0,0-3.17.44q-4.61,3-9.16,6.05C442.52,409.45,442.45,409.83,442.05,410.62ZM485.7,114.5a2.84,2.84,0,0,0-3-1.9c-4.61,0-9.21-.07-13.82,0a9.78,9.78,0,0,0-2.72.64,1,1,0,0,0-.44.76,1,1,0,0,0,.43.77,3,3,0,0,0,1.33.4c5.4,0,10.8,0,16.2,0A8.49,8.49,0,0,0,485.7,114.5Zm264.89,56.41c-1.44,3.91-.84,5.12,2.6,5.21s7,0,10.48,0c.82,0,1.58-.2,1.7-1.58A46.55,46.55,0,0,0,750.59,170.91ZM556.87,115.43c.54,1.24,1,2.22,1.4,3.23.68,1.72,2.11,2.24,3.77,2.4a2.15,2.15,0,0,0,2.52-1.66,35.05,35.05,0,0,0,.86-4.66,1.77,1.77,0,0,0-2.08-2A10.16,10.16,0,0,0,556.87,115.43ZM165.52,166.16c-1.4,1.7-.68,2.73-.36,3.75,2,6.25,4.19,12.4,5.48,18.84a17.36,17.36,0,0,0,1.28,3.6,6,6,0,0,0,1.21,1.35c1.38-1.34.77-2.54.32-3.66a85.24,85.24,0,0,1-4.33-14.17A39.47,39.47,0,0,0,165.52,166.16ZM778,132.07c-3.17,4.06-3.68,8.78-4,13.51,0,.46.93,1.3,1.56,1.46a2.25,2.25,0,0,0,3-2.17A64.67,64.67,0,0,0,778,132.07ZM313.47,204.14c2.7-.42,4.85-.78,7-1.08a4.42,4.42,0,0,0,3.21-1.8c.69-1,.3-2.54-.86-2.68a29.57,29.57,0,0,0-9.39,0c-.1,1-.25,1.81-.24,2.58C313.22,202.09,313.36,203,313.47,204.14ZM339.08,172c-1.62-5.81-2.24-6.14-8.19-4.07-.29,1.24-.62,2.6-.95,4l2.65,3.22C335.79,175.8,337.63,174.26,339.08,172Zm87.38.1c.29-3.24-1.4-5-4.33-5.79a4.68,4.68,0,0,0-4.6,4.54,4.85,4.85,0,0,0,2.7,4.12C423.3,176.19,424.88,174.15,426.46,172.09Zm-149.12-40c.38,5,1.4,8.63,5.74,20.16A41.19,41.19,0,0,0,285,156c0-5.18-1.31-9.95-5.36-20.38C279.12,134.38,278.82,132.92,277.34,132.12Zm99-18a10.08,10.08,0,0,0,2.42,1c5.47.49,9.4.15,11.61-1-.29-.36-.5-.9-.84-1-3.74-1.09-7.54-.66-11.33-.33C377.68,112.87,377.23,113.47,376.32,114.11Zm-111,84.13a25.4,25.4,0,0,0,0,2.76c.2,1.64-.65,4,1.27,4.68,2.27.86,2.94-1.75,4.19-3,.16-.16.05-.58.06-.89C267.52,198.25,267.52,198.25,265.36,198.24ZM549.7,60.9c-4.81-2.7-10.07-3.74-15.23-5.12a1.24,1.24,0,0,0-1,.65,1.36,1.36,0,0,0,.62,1.12c4.22,1.43,8.41,3,12.92,3.34C547.9,61,548.8,60.9,549.7,60.9ZM307.12,259.23c-.06-1.26-.06-2-.16-2.82a1.66,1.66,0,0,0-2.5-1.21c-.5.3-1.19.84-1.22,1.3a35.6,35.6,0,0,0,.16,5.56c0,.38,1,1,1.4.93a2.57,2.57,0,0,0,1.87-1A9.57,9.57,0,0,0,307.12,259.23Zm-15.74-42.85a9.35,9.35,0,0,0-.92-2.06c-1.89-1.91-3.8-3.81-5.76-5.65a24.08,24.08,0,0,0-2.95-2.39,8,8,0,0,0-2.23-.45c.56,1.08.7,1.74,1.1,2.07C283.87,210.59,286.36,214.25,291.38,216.38Zm485.81-98.47c-.27-.5-.39-1.12-.71-1.25a41.08,41.08,0,0,0-4.05-1.38c-2.74-.81-5.49-1.57-8.25-2.33a1.79,1.79,0,0,0-.93-.11c-.43.13-1.18.47-1.15.61.09.54.34,1.39.7,1.49,4.29,1.18,8.61,2.25,12.94,3.3C776.13,118.34,776.62,118.05,777.19,117.91Zm-270.68-7.33c.62-1.14.92-1.86,1.36-2.48,1.18-1.67,2.75-1.57,3.67.18.48.9.06,2.32,1.52,2.66,1.55-1.19,1.62-2.28.33-4.72-.73-1.36-3.33-2.21-5-1.46a5.13,5.13,0,0,0-2.17,1.72C505.52,107.52,505.31,108.78,506.51,110.58ZM858.73,83.45c1.49-2.87,1.73-5.66,1.34-13-.05-.89.11-1.94-1.29-2.32-.21.31-.59.64-.64,1A57.83,57.83,0,0,0,858.73,83.45ZM187.6,194c-3,.56-3.77,1.16-3.94,3a6.53,6.53,0,0,0,1.48,4.89c.79,1,1.76,1.35,2.8.27C186.68,198.46,186.68,198.46,187.6,194ZM514.93,51.41l0,1c4.39,1.22,8.77,2.45,13.16,3.66a1.83,1.83,0,0,0,.93,0c.28-.09.71-.32.71-.5a1.86,1.86,0,0,0-.32-1.27,2.71,2.71,0,0,0-1.31-.48c-3.68-.84-7.36-1.7-11.06-2.48A9.07,9.07,0,0,0,514.93,51.41ZM282.77,217.7c-1.55,2.32-1,4.8-.87,7.22,0,.32.6.61,1.11,1.09C285.05,223.09,284.28,220.4,282.77,217.7Zm-5-49.82a33.88,33.88,0,0,0-4.22,1.53,1.9,1.9,0,0,0-.67,2.53c.33.91.72,1.8,1.86,1.9a2,2,0,0,0,2.24-1.4A34.65,34.65,0,0,0,277.76,167.88ZM306,231.14a2.88,2.88,0,0,0,2.69-2.21,2.8,2.8,0,0,0-2.41-3,2.83,2.83,0,0,0-2.71,2.16A3,3,0,0,0,306,231.14ZM881.17,88c-.66.08-1.13.11-1.59.21a1.69,1.69,0,0,0-1.45,2c.22.64.83,1.49,1.39,1.6a7.43,7.43,0,0,0,3.21-.18,1.73,1.73,0,0,0,1-1.34,3.23,3.23,0,0,0-1-1.91C882.36,88.1,881.6,88.14,881.17,88ZM128.09,225.37c1.95-1.54,1.18-3.38,1.28-5,.06-1,.44-2.27-1.34-2.75A8.37,8.37,0,0,0,128.09,225.37ZM413.71,114.1c-2.76-1.9-4.23-2.06-6.6-.67-.24.14-.16.82-.26,1.48C409.25,115.1,411.54,115.89,413.71,114.1ZM380.4,171.39a3.78,3.78,0,0,0-.44.86,1.12,1.12,0,0,0,0,.88,6.89,6.89,0,0,0,4.65,2.79,1,1,0,0,0,1-1.23A5.58,5.58,0,0,0,380.4,171.39Zm154.91-57.95c2.34,2.16,4.47,2.29,7.14,1.55-.51-.87-.73-1.84-1.25-2A6.25,6.25,0,0,0,535.31,113.44Zm17,3.89c.57-1.15,1.27-1.89,1.12-2.37a6.25,6.25,0,0,0-3.41-4.17C549.5,113.06,549.5,113.06,552.28,117.33Zm-277.95,2.6c-.47.35-1.14.65-1.11.85a15.56,15.56,0,0,0,2.42,7c.09.13.54,0,1.24,0C276.72,124.93,276.28,122.3,274.33,119.93Zm198.43,55.54a4.8,4.8,0,0,0-2.49-3.56c-1.09-.72-2.69-.53-2.9.31-.31,1.16.54,1.74,1.31,2.25C469.8,175.23,470.86,176.37,472.76,175.47Zm-7.34-5.88c0-.33.06-.51,0-.64a6.89,6.89,0,0,0-3.75-3.49,1.37,1.37,0,0,0-1.19.46,1.44,1.44,0,0,0-.16,1.28,5.66,5.66,0,0,0,4.07,3C464.71,170.22,465.12,169.77,465.42,169.59ZM271.28,209.07c2,1.89,2.62,2,6.81.77a1.63,1.63,0,0,0-2-1.91A42.74,42.74,0,0,0,271.28,209.07ZM377,170.19c.43-.19.79-.25,1-.46s.27-.71.14-.84c-1.06-1.14-2.15-2.27-3.32-3.3-.21-.19-1,0-1.26.23a1.36,1.36,0,0,0-.31,1.23A5.59,5.59,0,0,0,377,170.19Zm138.51-55.48a5.68,5.68,0,0,0,.24.52,2.3,2.3,0,0,0,3.35.49,2.17,2.17,0,0,0,.86-1.52c0-.93-1.29-1.54-2.64-1.26a2.56,2.56,0,0,0-1.26.6A3.39,3.39,0,0,0,515.49,114.71Zm-190.18-.41c-1.59-.92-2.18-1.51-2.84-1.6a2.84,2.84,0,0,0-3.29,1.49C320.74,115.86,322.39,115.13,325.31,114.3ZM903.16,70.23l-.48,0c0,1.85,0,3.7,0,5.54a18.49,18.49,0,0,0,.48,5.69ZM444.11,151c-.31,0-.63,0-.94.07-.84.11-1.63.46-1.47,1.4.08.43.81.89,1.33,1a3,3,0,0,0,1.85,0c.52-.18.89-.75,1.33-1.15a11.58,11.58,0,0,0-1.18-1.24C444.82,150.91,444.42,151,444.11,151Zm-87.39.06c-.42,0-.81,0-1,.12a11,11,0,0,0-1.28,1.18c.44.4.82,1,1.33,1.14a5,5,0,0,0,2.32-.12,1.35,1.35,0,0,0,.77-1c0-.36-.46-.82-.83-1A4,4,0,0,0,356.72,151ZM255.53,210.54c1.57.05,2.53-.54,2.46-1.52a2,2,0,0,0-1.82-1.84,2.14,2.14,0,0,0-2.43,1.71C253.56,209.82,254.29,210.5,255.53,210.54ZM229,200.24c1.63,1.55,1.8,1.52,4.81-.79C232.13,198,231.74,198,229,200.24ZM453.63,411.08a30.79,30.79,0,0,0,4,.06,1.8,1.8,0,0,0,1.2-1.1c.23-.77-1-1.77-1.83-1.56A4.16,4.16,0,0,0,453.63,411.08ZM163.45,161.58c.26-4,.08-4.48-1.78-5.33C162.38,158.11,162.12,160.05,163.45,161.58Zm351,45.88c-.26-.18-.61-.64-.94-.63a3,3,0,0,0-2.58,2.27c-.19.49.5,1.29,1,1.24A2.69,2.69,0,0,0,514.4,207.46Zm-88.7-.77c-.8.92-1.54,1.66-2.14,2.5-.33.47.39,1.28,1,1.2a2.3,2.3,0,0,0,2.21-2.5C426.74,207.56,426.24,207.27,425.7,206.69Zm-163.55-2.48c-.25-.48-.36-1-.54-1-.41-.07-1.06-.07-1.24.18a5.61,5.61,0,0,0-.95,2.06c-.07.32.37.94.71,1.09a1.29,1.29,0,0,0,1.2-.35A10.19,10.19,0,0,0,262.15,204.21Zm-21.43,30.54.36,1c.84-.17,1.69-.3,2.52-.53.19-.05.44-.6.39-.65-.27-.28-.68-.72-1-.66A18.1,18.1,0,0,0,240.72,234.75Zm64.52,40.34c.51-.78,1-1.24,1.07-1.73.05-.89-.64-1.36-1.5-1.46s-1.7.79-1.34,1.44A9.4,9.4,0,0,0,305.24,275.09ZM583.31,168c-.38.14-.93.19-1.2.49a5.78,5.78,0,0,0-.75,1.49,5.63,5.63,0,0,0,1.66.42,1.62,1.62,0,0,0,1.06-.77,1.75,1.75,0,0,0,0-1.22C584.08,168.18,583.63,168.1,583.31,168ZM272.05,130.23c.35-.81.82-1.37.71-1.78s-.77-.72-1.19-1.07A5.68,5.68,0,0,0,271,129C271,129.29,271.5,129.61,272.05,130.23Zm33.28,135.35c-.5.62-1,.92-.95,1.22a6.17,6.17,0,0,0,.46,1.62c.41-.34,1.06-.62,1.17-1S305.67,266.4,305.33,265.58ZM573.94,151.09A6.61,6.61,0,0,0,572.4,150c-.18-.06-.88.67-.84.76a3.42,3.42,0,0,0,1.09,1.23C572.78,152.05,573.3,151.53,573.94,151.09ZM276,203.66l.85-.46a6.25,6.25,0,0,0-.72-1s-.64.31-.62.39A5.16,5.16,0,0,0,276,203.66Zm-87.75,58.45c-.45-.38-.74-.83-1-.83s-.64.43-.95.66c.25.31.47.81.77.86S187.67,262.44,188.21,262.11ZM568,116a9.59,9.59,0,0,0-.49,1.68c0,.16.3.33.47.5.08-.11.24-.23.23-.34C568.23,117.45,568.16,117.05,568,116ZM415.45,175.4a1.88,1.88,0,0,0,.05-.36,2.78,2.78,0,0,0-.64-.12,2.23,2.23,0,0,0-.09.36Zm-129.85-17,.14.3.13-.3Zm42.77,17-.12-.36c-.12.05-.3.06-.36.14s.05.24.09.36Zm-78.5,34.52-.54-.15c0,.09.06.26.09.27A2.35,2.35,0,0,0,249.87,209.94Z"/><path class="cls-1" d="M835.38,103.68c-2.87,1.93-2.94,4.6-2.9,7.37q.09,9.33,0,18.67c0,2.05.28,3.83,2.6,4.74a109.75,109.75,0,0,1-2.34,13.25c-.08.37-.53.66-1,1.14-1.9-4.49-2.06-9.17-3.23-13.84a14.92,14.92,0,0,1,1.69-1.48,2.57,2.57,0,0,0,1.1-2.47c0-8.14,0-16.27,0-24.88l-2.28-1.72c-.6-1.74,1.2-10.2,3-14.45C834.08,94.58,833.87,99.27,835.38,103.68Z"/><path class="cls-1" d="M824.15,153.08c.29-.31.61-.92.91-.91,3,.09,5.94-.54,9-.38,6.52.34,13.06.13,19.59.11a6.9,6.9,0,0,0,1.66-.52c.13-1.14.31-2.36.41-3.59.07-.82.17-1.79,1.14-1.72s.93,1.09,1,1.88c.13,1.08.33,2.15.47,3.08,2.12,1.4,4.26.71,6.27,1,1.26.16,3.43-.8,3.46,1.23,0,1.44-2,1-3.26,1-2.86,0-5.72-.2-8.59-.22-1.89,0-3.78.22-5.68.23q-11.47,0-22.95,0C826.38,154.25,825,154.62,824.15,153.08Z"/><path class="cls-1" d="M8.86,195.93A4.31,4.31,0,0,1,9.15,191a12.29,12.29,0,0,1,5.75-4.79,25.26,25.26,0,0,1,12.15-1.62,5.77,5.77,0,0,1,5.14,3.67c.93,2.3.28,4.35-1.22,6.21a2.17,2.17,0,0,1-.31.36c-1.79,1.3-3.42,3-5.4,3.83a20.12,20.12,0,0,1-10.72,1.65c-2.7-.37-5.45-1-5.8-4.52a11.35,11.35,0,0,0,9.51,1.87A39.58,39.58,0,0,0,25,195.42a25.66,25.66,0,0,0,5.15-3.4c2-1.6,1.54-3.87-.9-4.81a7.89,7.89,0,0,0-3.22-.65,28.23,28.23,0,0,0-14.67,5A5.44,5.44,0,0,0,8.86,195.93Z"/><path class="cls-1" d="M42.7,93.59c.55-5.07,1-10.15,1.7-15.21A3.55,3.55,0,0,1,45.73,76c1.41-.84,1.8-2.15,2.35-3.48,1.34-3.25,2.68-6.5,4.11-9.71.69-1.56,1.31-3.24,2.82-4.23,1,.79.69,1.52.39,2.25-1.55,3.68-3.11,7.35-4.64,11-.8,1.91-1.76,3.79-.6,5.95a2.44,2.44,0,0,1-.09,1.85c-1.71,3.78-3.45,7.55-5.3,11.26a13.6,13.6,0,0,1-2.18,2.53Z"/><path class="cls-1" d="M60,271.78a35.61,35.61,0,0,1-4.25-8.35c-.49-1.18-.74-2.45-1.19-3.64-1.08-2.85-2.25-5.66-5.58-6.68a69.45,69.45,0,0,1-1.71-14.36c1,.58,1.62.75,1.88,1.17,1.76,2.84,3.49,5.71,5.12,8.63a5,5,0,0,1,.71,4.12,5.63,5.63,0,0,0,.44,4.17c1.63,3.81,3.3,7.6,4.92,11.41C60.73,269.21,61.47,270.22,60,271.78Z"/><path class="cls-1" d="M815.91,112a12.82,12.82,0,0,1-8.1-2.57,5.45,5.45,0,0,1,0-9,9.22,9.22,0,0,1,3-1.51,19.65,19.65,0,0,1,10.86.05,6.15,6.15,0,0,1,.35,11.92A39.45,39.45,0,0,1,815.91,112Zm-.24-2.84a20.76,20.76,0,0,0,4-.27,13.37,13.37,0,0,0,4.33-1.8c2.2-1.55,1.92-3.5-.51-4.8a7.59,7.59,0,0,0-2.2-.89,26.33,26.33,0,0,0-10-.07,10.24,10.24,0,0,0-3.07,1.25c-2,1.14-2.19,2.91-.4,4.17a15,15,0,0,0,4.22,2.06A16.37,16.37,0,0,0,815.67,109.17Z"/><path class="cls-1" d="M723.23,244.68c.34,0,.7-.12.88,0,4.08,2.94,8.71,2.81,13.32,2.19a13,13,0,0,0,4.72-2.07,2,2,0,0,0-.27-3.53,16,16,0,0,0-4.44-1.63,20.79,20.79,0,0,0-12.16,1.21,6.19,6.19,0,0,1-1.29.27c-.77-.72-.22-1.23.18-1.66a6.47,6.47,0,0,1,1.48-1.17c3.55-2.07,11.61-2,15.27-.09a5.5,5.5,0,0,1,.16,9.94,16.38,16.38,0,0,1-15.56-.11A4,4,0,0,1,723.23,244.68Z"/><path class="cls-1" d="M241.26,286.34a74.27,74.27,0,0,1-2.57-13.7,2.61,2.61,0,0,1,.41-1.81c1.7-1.88,1.43-4.15,1.47-6.37,0-2.87,0-5.75,0-8.63,0-.74-.11-1.64,1.26-2a10.27,10.27,0,0,1,.46,2.08c.06,2.72,0,5.44,0,8.16,0,2.37-.27,4.78,1.49,6.84a3.19,3.19,0,0,1,.38,2.29c-.58,3.94-1.26,7.88-1.94,11.81C242.24,285.25,241.92,285.48,241.26,286.34Z"/><path class="cls-1" d="M298.84,79.06c-.81.34-1.13.6-1.38.55-3.54-.79-7.07-1.63-10.81-2.5a9.8,9.8,0,0,1-.27-2.32c.27-2.22.63-4.43,1-6.63.12-.63.64-1.27,1.33-.92a1.92,1.92,0,0,1,.92,1.43c-.1,1.59-.48,3.15-.65,4.74-.27,2.66.33,3.42,2.94,3.89.78.14,1.56.3,2.36.39a5.73,5.73,0,0,0,1.28-.28c.1-.92.28-2,.32-3,.15-3.84,1.62-5.58,5.3-6.12a12.73,12.73,0,0,1,7.46,1.19,4.32,4.32,0,0,1,2.63,4.85,19.22,19.22,0,0,0-2.92-2,18.7,18.7,0,0,0-4.93-1.69c-4.27-.54-6.52,2.35-5.28,6.53C298.36,77.7,298.57,78.27,298.84,79.06Z"/><path class="cls-1" d="M241.84,335.29c.52,2.09.88,3.28,1.1,4.5.37,2,.62,4.1,1,6.14.41,2.22.77,4.33-.9,6.36a5.6,5.6,0,0,0-.68,3.17c-.07,3,0,6.07,0,9.1a10.76,10.76,0,0,1-.43,2.06c-1.2,0-1.27-.77-1.28-1.36-.06-3.19,0-6.38-.09-9.57,0-1.24,0-2.85-.71-3.63-1.58-1.72-1.26-3.5-.94-5.38.53-3.14,1.11-6.28,1.72-9.4C240.69,336.86,241.07,336.5,241.84,335.29Z"/><path class="cls-1" d="M816.55,125.25c-1-.57-1.79-.07-2.61.49a5.51,5.51,0,0,1-6.62,0c.22-.35.41-.76.48-.74,3.16.91,4.76-1,6-3.37.91-1.74.37-3.3-1.51-3.72a32.12,32.12,0,0,0-5-.36c1-2.17,2.54-3,4.56-2a30,30,0,0,1,3.69,2.49,18.26,18.26,0,0,1,3.23-2.56,7,7,0,0,1,3.66-.6,2.38,2.38,0,0,1,2.25,2.42,17.63,17.63,0,0,0-1.78-.2,6,6,0,0,0-6,4.47,29.59,29.59,0,0,0-.49,3.78Z"/><path class="cls-1" d="M286,92.43c-.38-2.28,0-2.92,1.74-2.73,4,.41,7.92.91,11.86,1.46,3,.42,5.94,1.14,9.09,0,.8,2.19-.47,3.83-.32,6-2.93-2.27-2.93-2.27-6-2.74-3.31-.51-6.61-1.09-9.92-1.52C290.46,92.67,288.41,92.61,286,92.43Z"/><path class="cls-1" d="M16.87,118.31l-3.28-1c.13-1.47.22-2.72.34-4,.52-5.4,4.47-8.19,9.69-6.76a10,10,0,0,1,5.86,4.63c1.11,1.79.45,3.63.18,5.43-1.27.11-1.15-.68-1.1-1.21.23-2.27-1-3.62-2.84-4.51a15.82,15.82,0,0,0-4-1.43c-4.2-.77-6.65,2.05-5.49,6.16C16.38,116.2,16.5,116.8,16.87,118.31Z"/><path class="cls-1" d="M741.77,280.13c-1.37,1.93-2.81,2.23-4.4,1.51a45.82,45.82,0,0,1-4-2.29c-2.68,0-4.6,3.5-7.52,1.35.15-.38.21-.85.35-.87a5.68,5.68,0,0,0,5.16-4.82c.79-3.67,4-4.76,6.89-5.79a3.19,3.19,0,0,1,3.84,1.85c-.48.26-.79.57-1,.52-3.23-.81-5.08,1.09-6.69,3.4-1.33,1.91-.68,3.79,1.64,4.39A51,51,0,0,0,741.77,280.13Z"/><path class="cls-1" d="M744.06,333.16c.23,2,0,2.55-1,2.54-1.59,0-3.17-.12-4.76-.16a17.1,17.1,0,0,0-7.48,1,8,8,0,0,1-6-.08,3.75,3.75,0,0,1-1.53-1.05,1.59,1.59,0,0,1-.32-1.31,1.42,1.42,0,0,1,.91-.92,19.32,19.32,0,0,1,2.85-.06C732.33,333.15,738,333.16,744.06,333.16Z"/><path class="cls-1" d="M826.58,135.4c-.1,1.17-.17,2-.25,3-6.24-.33-12.22-.76-18.19.14a1.38,1.38,0,0,1-1.6-1.38,1.34,1.34,0,0,1,1.43-1.51c1.74-.08,3.48-.07,5.23-.09Z"/><path class="cls-1" d="M763.5,333.1c2.56,0,5.11,0,7.67,0a3.43,3.43,0,0,1,1.41.13c.38.17.93.75.86,1-.18.51-.65,1.28-1,1.31-1.74.12-3.5,0-5.25,0a13.55,13.55,0,0,0-6.56,1c-2,1-4.08.58-6.1,0a2.77,2.77,0,0,1-1.53-1,2.41,2.41,0,0,1-.12-1.76,1.38,1.38,0,0,1,1.08-.71c3.19-.06,6.39,0,9.58,0Z"/><path class="cls-1" d="M279.92,331.58c.72-.44,1.16-.92,1.64-1,1.58-.14,3.17-.14,4.76-.17,1.26,0,2.54,0,3.8,0a6.57,6.57,0,0,0,6.42-4.79,35.34,35.34,0,0,0,.87-4.65,15.88,15.88,0,0,1,.64-2c.47.15.73.17.75.26,1.76,6.09-.34,10.52-5.95,12.55C290.09,332.78,283.64,332.75,279.92,331.58Z"/><path class="cls-1" d="M174.27,129.87c.43-.15.75-.39,1-.33,2.32.54,4.64,1.07,6.93,1.71,5.32,1.48,10.61,3,15.83,4.51.05,1.39-.63,1.65-1.51,1.44-2.62-.64-5.23-1.35-7.85-2-3.85-1-7.71-1.93-11.55-3a10.31,10.31,0,0,1-2.58-1.16C174.29,130.92,174.35,130.27,174.27,129.87Z"/><path class="cls-1" d="M752.94,245.33c7.61,2.72,11.29,2.76,19.47-.22.85.74.36,1.36-.19,2a5.33,5.33,0,0,1-.71.63c-4,3.11-13.4,3-17.11-.3A10.76,10.76,0,0,1,752.94,245.33Z"/><path class="cls-1" d="M773.08,241.61c-6.94-3-13.34-3.28-19.87.23,0-.62-.14-1.1,0-1.42a6.66,6.66,0,0,1,4.58-3.14,21.67,21.67,0,0,1,10.85.14,12,12,0,0,1,3.66,2.11C772.7,239.8,772.72,240.54,773.08,241.61Z"/><path class="cls-1" d="M185.91,85.86a10.65,10.65,0,0,1,3.09,0,147.06,147.06,0,0,0,18.94,4.78,2.33,2.33,0,0,1,1.26.6,1.83,1.83,0,0,1,.33,1.23c0,.19-.49.5-.74.48a7.08,7.08,0,0,1-2.3-.34,53.68,53.68,0,0,0-10.59-2.73c-3-.5-5.88-1.38-8.8-2.14A1.45,1.45,0,0,1,185.91,85.86Z"/><path class="cls-1" d="M725,345.66l-1.58-1.24c.41-.43.74-1.11,1.22-1.26,2-.59,4-1,6-1.54,2.29-.69,4.52-1.56,6.79-2.3a10,10,0,0,1,2.71-.63c1.65-.05,2.79.69,2.58,1.48-.32,1.2-1.44,1-2.3,1.27-2.88.89-5.73,1.89-8.64,2.7C729.49,344.78,727.13,345.19,725,345.66Z"/><path class="cls-1" d="M772.67,339.75c-.54.6-.77,1.11-1.13,1.22-3.9,1.28-7.8,2.61-11.76,3.68a37.26,37.26,0,0,1-6.09.74c-.19,0-.59-.39-.6-.62a1.83,1.83,0,0,1,.32-1.23,2.49,2.49,0,0,1,1.24-.6c4.44-1.1,9-1.71,13.13-3.92C769.18,338.26,770.85,338.4,772.67,339.75Z"/><path class="cls-1" d="M245.19,101.94c-.53.15-1.12.52-1.6.41-2.47-.57-4.91-1.28-7.37-1.9q-5.76-1.44-11.54-2.83c-.62-.15-1.25-.24-1.86-.39-.77-.19-1.56-.36-1.73-1.34-.14-.76.94-1.25,2.27-.74,6.4,2.5,13.37,2.67,19.84,4.85a7.21,7.21,0,0,1,1.68.8C245.07,100.92,245,101.35,245.19,101.94Z"/><path class="cls-1" d="M773.12,255.74c.67,1.13.46,2.28-.75,2.09-3.12-.5-6.21.38-9.34-.26a6.53,6.53,0,0,0-5.47.92c-1.43,1.08-2.68.14-3.81-.76a1,1,0,0,1-.29-.84,1.87,1.87,0,0,1,.86-.95,5.82,5.82,0,0,1,1.87-.22c4.73,0,9.47,0,14.2,0Z"/><path class="cls-1" d="M857,139.93c-.33-.18-.55-.22-.59-.33a11,11,0,0,1,.28-9.14,4.38,4.38,0,0,1,3.66-2.77c2.37-.14,4.75,0,7.13,0,.2,0,.6.47.56.62-.11.39-.39,1-.66,1.05a22.62,22.62,0,0,1-4.27.24c-3.38-.21-5,1.92-5.17,4.91-.07,1.27,0,2.56-.14,3.82A5.22,5.22,0,0,1,857,139.93Z"/><path class="cls-1" d="M18.21,134c-2.59-.67-3.43-2.81-4.7-4.57a11,11,0,0,0-4.25-3.67C7.08,124.7,5,124.47,3,126a5.33,5.33,0,0,1-1.27.52c.5-2.74,1.74-4.15,4-4.48a6.36,6.36,0,0,1,6.63,2.75C14.36,127.81,16.25,130.92,18.21,134Z"/><path class="cls-1" d="M903.31,151.58c.48-2.09.85-3.74,1.26-5.54,2.11,1.71,2.22,2.89.87,7.62a20.8,20.8,0,0,1-3.1.57c-2.08.09-4.16.06-6.24,0-1.78,0-2.88-.59-2.63-1.27.43-1.19,1.51-1,2.43-1,1.44,0,2.88,0,4.31-.05C901.15,151.93,902.09,151.74,903.31,151.58Z"/><path class="cls-1" d="M733.64,305.37a4.92,4.92,0,0,0,5.37-.67c1.37-1.06,2.9-1.91,4.35-2.85,1.4,2,1.41,2.75-.19,3.33a8.59,8.59,0,0,0-4,2.5,1.9,1.9,0,0,1-.75.57c-2.34.88-4.7,1.73-7.05,2.59-1.07-.92-.65-1.87.33-2.22,1.71-.61,2.09-1.81,2-3.36Z"/><path class="cls-1" d="M23.26,127.2c1.43-.7,2.26-.3,2.67,1a1.87,1.87,0,0,1,.1.93c-.9,3.34-1.75,6.69-2.78,10a1.66,1.66,0,0,1-2.75.53c-.63-.56-1.1-1.45-.47-2.07C23,134.68,23,130.84,23.26,127.2Z"/><path class="cls-1" d="M904.49,139.62c-.15-1-.34-2.1-.46-3.17-.14-1.27-.11-2.57-.36-3.81a3.31,3.31,0,0,0-3.31-2.92c-1.59-.14-3.19,0-4.79-.15a14.68,14.68,0,0,1-2.44-.58c.46-.63.69-1.24,1-1.26,2.23-.14,4.46-.22,6.69-.22A4.59,4.59,0,0,1,905,130.2a12.65,12.65,0,0,1,1,8.84c-.05.22-.46.37-.72.51A2.94,2.94,0,0,1,904.49,139.62Z"/><path class="cls-1" d="M762.35,280.08c-.89-.76-1.59-1.07-1.63-1.45a50,50,0,0,1-.26-5.19,3.77,3.77,0,0,1,2-3.08,8.2,8.2,0,0,1,9.69.7c.19.15.16.56.31,1.2-.63,0-1.17,0-1.72,0-1.88-.07-3.77-.27-5.66-.22a4.24,4.24,0,0,0-3.53,2.11c-.91,1.45-.35,2.71.46,4A7.58,7.58,0,0,1,762.35,280.08Z"/><path class="cls-1" d="M760.89,309.17c3.56,1.64,6.74,1.16,9.88,1.21a11,11,0,0,1,2.28.3c.21.05.43.49.45.76a1,1,0,0,1-.37.79,2.68,2.68,0,0,1-1.31.4c-3.31,0-6.62.09-9.93,0a2.41,2.41,0,0,1-1.84-1C759.86,311.1,760.47,310.29,760.89,309.17Z"/><path class="cls-1" d="M760.85,304.06c.13-.44.14-1,.4-1.25a1.92,1.92,0,0,1,1.23-.62c3.29-.12,6.59-.19,9.88-.19a1.37,1.37,0,0,1,.95.88c.15.73-.44,1.15-1.1,1.16C768.47,304.08,764.72,304.06,760.85,304.06Z"/><path class="cls-1" d="M5.75,173.22a4.48,4.48,0,0,1,4.08,4A4.12,4.12,0,0,1,6,181.28a4.5,4.5,0,0,1-4.15-3.93A4.57,4.57,0,0,1,5.75,173.22Zm2.63,4.67A2.55,2.55,0,0,0,6,175a2.26,2.26,0,0,0-2.38,1.81,2.48,2.48,0,0,0,1.53,3A2.58,2.58,0,0,0,8.38,177.89Z"/><path class="cls-1" d="M292.14,58.66a3.89,3.89,0,0,1-3.93-4.37c.11-2.09,2.22-4.23,3.93-4,2.07.3,4.21,2.37,4.13,4C296.15,56.78,294.26,58.77,292.14,58.66Zm0-1.31a3,3,0,0,0,2.73-2.81A3.3,3.3,0,0,0,292,51.89a2.81,2.81,0,0,0-2.69,2.25A3.23,3.23,0,0,0,292.18,57.35Z"/><path class="cls-1" d="M731.68,319.94c2-1.58,2-1.58,12.06-1.58-.19.87-.36,1.67-.49,2.28-2.81.23-5.3.59-7.79.59C734.17,321.24,732.6,321.36,731.68,319.94Z"/><path class="cls-1" d="M9.78,93.18c-.12-.6-.53-1.38-.3-1.76A7.91,7.91,0,0,1,11.66,89c1.3-.9,3.83-.15,5.15,1.3a3.46,3.46,0,0,1,.1,4,3.72,3.72,0,0,1-4.35,2A3.51,3.51,0,0,1,9.66,93,27.18,27.18,0,0,0,12,94.6a2.61,2.61,0,0,0,3.37-.67,3,3,0,0,0,0-3.5,2.93,2.93,0,0,0-3.44-.67C10.4,90.4,10.13,91.8,9.78,93.18Z"/><path class="cls-1" d="M733.51,258.53c.22-.18.46-.53.67-.51,2.67.19,5.35.43,8,.67.31,0,.72,0,.91.15.42.39,1,.93,1,1.36a1.88,1.88,0,0,1-1.16,1.21,6.63,6.63,0,0,1-2.36.15A11.63,11.63,0,0,1,733.51,258.53Z"/><path class="cls-1" d="M7.32,114.83c-1.67,0-2.61-.87-2.32-2.33.52-2.61,1.34-5.16,2.12-7.71a1.29,1.29,0,0,1,1.15-.47,1.27,1.27,0,0,1,.69,1c-.17,1.23-.54,2.44-.75,3.67C7.89,110.84,7.65,112.67,7.32,114.83Z"/><path class="cls-1" d="M725.43,265.13c-1.34-.74-2.36-1-2.48-1.41-.81-3.22-.49-6.44.07-9.94l2.19.68a32,32,0,0,0-.77,5.07A36,36,0,0,0,725.43,265.13Z"/><path class="cls-1" d="M282.08,318.7c1,.14,1.18.87,1.19,1.71a3.25,3.25,0,0,1-1.27,2.93c-1.47,1-4.56,1-7,0,.23-.17.49-.51.7-.48,3.08.33,5.16-.8,6-3.9C281.71,318.83,281.93,318.78,282.08,318.7Z"/><path class="cls-1" d="M753.51,279c-.37-.3-.93-.52-1-.84a13.29,13.29,0,0,1,.24-7.29c.52.16,1,.2,1,.35A12.24,12.24,0,0,1,753.51,279Z"/><path class="cls-1" d="M759.91,323.88c1-.79,1.22-1.13,1.44-1.13,3.77,0,7.53,0,11.53,0a4.71,4.71,0,0,1-.52,1.29c-.16.18-.6.14-.91.14Z"/><path class="cls-1" d="M735.85,326.32a5.71,5.71,0,0,1,.93.21c3.5,1.43,3.5,1.44,6.59,1.05.29,1.44-.72,2-1.74,2.41a3.12,3.12,0,0,1-3.56-.67,27.07,27.07,0,0,1-2.23-3Z"/><path class="cls-1" d="M16.26,217.22a44.92,44.92,0,0,1,4.42-1.84,1.72,1.72,0,0,1,1.51.64,1.33,1.33,0,0,1-.66,1.95,4.32,4.32,0,0,1-2.22.5A15.34,15.34,0,0,1,16.26,217.22Z"/><path class="cls-1" d="M.93,131.46c1.64.51,2.49.82,3.36,1s1.79.35,2.52.48c.54,1.49,0,2.22-1.13,2.21C3.63,135.18,2.19,134.15.93,131.46Z"/><path class="cls-1" d="M309.41,80.6c-2.67,2-3.42,2.15-4.61,1.16a1.45,1.45,0,0,1-.41-2.07,1.86,1.86,0,0,1,1.57-.62A24.24,24.24,0,0,1,309.41,80.6Z"/><path class="cls-1" d="M724.44,271.89c.19-2,1.52-2.08,2.65-2.2s2.53-.2,2.92,1.68C728.22,272,726.41,271.71,724.44,271.89Z"/><path class="cls-1" d="M26.19,120.38a3.05,3.05,0,0,1-3.85.15c-.29-.18-.59-.93-.45-1.13.29-.45.89-1,1.32-1A3.33,3.33,0,0,1,26.19,120.38Z"/><path class="cls-1" d="M741.3,310c3.22,0,3.22,0,2.66,2.19C742.56,312.42,742.06,311.41,741.3,310Z"/><path class="cls-1" d="M816.44,125.32l2.82.23,4.72.4c0,.92-1,.84-1.6,1a7.5,7.5,0,0,1-5.81-1.66Z"/><path class="cls-1" d="M744.42,291.48c-.08,1.18-.82,1.8-1.64,1.67a1.37,1.37,0,0,1-1.33-1.57c.1-.86.73-1.51,1.6-1.25C743.64,290.5,744.09,291.18,744.42,291.48Z"/><path class="cls-1" d="M772.09,289.68c.8.93,1.45,1.39,1.61,2,.1.37-.44,1.11-.87,1.39a1.24,1.24,0,0,1-1.73-1A9.24,9.24,0,0,1,772.09,289.68Z"/><path class="cls-1" d="M769.63,281.44l-1.09-1.58a5.2,5.2,0,0,1,1.6-.73c.61-.06,1.36.31,1.09,1.07C771.06,280.66,770.34,280.92,769.63,281.44Z"/><path class="cls-1" d="M732.77,291.49c-.79.66-1.21,1.28-1.62,1.27s-.9-.58-1.35-.91c.35-.43.64-1.13,1.07-1.22S731.84,291,732.77,291.49Z"/><path class="cls-1" d="M762.22,291.66c-.67.57-1.05,1.12-1.55,1.27a1,1,0,0,1-1.32-1c-.14-.91.51-1.8,1.24-1.57C761.11,290.56,761.51,291.09,762.22,291.66Z"/><path class="cls-1" d="M755.44,323.36a6.68,6.68,0,0,1-1.93.8c-.28,0-.88-.72-.81-.89.2-.48.65-1.14,1-1.18S754.6,322.69,755.44,323.36Z"/><path class="cls-1" d="M732.37,326.83a8.7,8.7,0,0,1,.93,1.64,1.5,1.5,0,0,1-1,.58,1.43,1.43,0,0,1-.9-.91C731.36,327.88,731.86,327.5,732.37,326.83Z"/><path class="cls-1" d="M733.77,305.26c-.92-.1-2,.08-2.4-1.06-.32-.87,1.18-.15,2.27,1.18Z"/><path class="cls-1" d="M735.84,326.3v-1.69l.34,0-.33,1.67Z"/><polygon class="cls-1" points="10.77 115.94 10.77 115.7 11.05 115.82 10.77 115.94"/><path class="cls-1" d="M763.58,263.74a1.54,1.54,0,0,1-.46.09s-.07-.17-.1-.26Z"/><path class="cls-1" d="M134.71,213.24q70.39,0,140.79,0a6.91,6.91,0,0,1,1.45.34c-.42.22-.69.48-.95.48q-70.65,0-141.3,0Z"/><path class="cls-1" d="M903.16,70.23V81.44a18.49,18.49,0,0,1-.48-5.69c0-1.84,0-3.69,0-5.54Z"/><path class="cls-1" d="M163.45,161.58c-1.33-1.53-1.07-3.47-1.78-5.33C163.53,157.1,163.71,157.6,163.45,161.58Z"/><path class="cls-1" d="M272.05,130.23c-.55-.62-1.05-.94-1-1.23a5.68,5.68,0,0,1,.56-1.62c.42.35,1.08.64,1.19,1.07S272.4,129.42,272.05,130.23Z"/><path class="cls-1" d="M276,203.66a5.16,5.16,0,0,1-.49-1c0-.08.58-.43.62-.39a6.25,6.25,0,0,1,.72,1Z"/><path class="cls-1" d="M568,116c.13,1,.2,1.44.21,1.84,0,.11-.15.23-.23.34-.17-.17-.48-.34-.47-.5A9.59,9.59,0,0,1,568,116Z"/><path class="cls-1" d="M415.45,175.4l-.68-.12a2.23,2.23,0,0,1,.09-.36,2.78,2.78,0,0,1,.64.12A1.88,1.88,0,0,1,415.45,175.4Z"/><path class="cls-1" d="M38.09,204.18v1.62l-.38-.08c.14-.53.27-1.06.42-1.6Z"/><polygon class="cls-1" points="285.6 158.42 285.87 158.43 285.74 158.72 285.6 158.42"/><path class="cls-1" d="M328.37,175.42l-.39.14c0-.12-.14-.29-.09-.36s.24-.09.36-.14Z"/><path class="cls-1" d="M249.87,209.94a2.35,2.35,0,0,1-.45.12s-.06-.18-.09-.27Z"/><path class="cls-1" d="M658.59,420.22c.06,2.57-1.39,3.94-4.18,3.95-2.21,0-3.7-1.51-3.83-3.92a3.9,3.9,0,0,1,3.72-4.07A4,4,0,0,1,658.59,420.22Zm-2.55.3c-.81-.68-1.28-1.37-1.64-1.32s-.86.73-1,1.23c-.07.2.52.92.8.91C654.64,421.34,655.12,421,656,420.52Z"/><path class="cls-1" d="M411,416.16a4,4,0,0,1,4.16,3.76,4.11,4.11,0,0,1-8.19.65A4.1,4.1,0,0,1,411,416.16Zm.37,6c.45-1,1-1.54.84-1.95s-.81-.74-1.24-1.1c-.33.46-.9.92-.91,1.39S410.66,421.31,411.34,422.14Z"/><path class="cls-1" d="M651.82,111.81c-5.9,1-17.89.79-21.63-.12a26.29,26.29,0,0,1,6.63-.36C641.84,111.44,646.87,111.08,651.82,111.81Z"/><path class="cls-1" d="M705.45,112.16c3.47-1,14.59-1.1,21.37-.29-4.32.94-7.69.4-11,.52A85.11,85.11,0,0,1,705.45,112.16Z"/><path class="cls-1" d="M689.66,112.2c-7.9.35-14.67.37-22.49.06,2.54-1.24,4.23-.88,5.85-.94s3.51,0,5.26,0,3.51-.06,5.26,0S687,111,689.66,112.2Z"/><path class="cls-1" d="M593.34,148.62c.23-.24.42-.61.66-.65a206.88,206.88,0,0,1,21.22.23c-.25.41-.46,1-.66,1q-10.29,0-20.58,0C593.76,149.2,593.55,148.82,593.34,148.62Z"/><path class="cls-1" d="M629.33,148.35a186.8,186.8,0,0,1,21.95-.47,3.61,3.61,0,0,1,1.13.52c-.08.29-.1.54-.15.54-7,.75-13.93.09-20.89.4C631,149.36,630.59,149,629.33,148.35Z"/><path class="cls-1" d="M585.46,188.64c.15,2-1.55,3.73-3.86,4a3.88,3.88,0,0,1-4.5-3.16,4.34,4.34,0,0,1,3.66-4.7C582.67,184.56,585.31,186.73,585.46,188.64Zm-4.68-1.53a7,7,0,0,0-.7,2c0,.31.7.91.8.85.46-.26,1.09-.66,1.14-1.08S581.46,188,580.78,187.11Z"/><path class="cls-1" d="M545.22,187.05a3.6,3.6,0,0,1,3.18-3.47,3.2,3.2,0,0,1,3.24,2.76,3.25,3.25,0,1,1-6.42.71Zm3.49-1.27c-.39.46-.9.81-.88,1.12s.56.63.86.94c.31-.31.83-.6.86-.93S549.07,186.24,548.71,185.78Z"/><path class="cls-1" d="M726.87,148.44c-.67.49-.91.82-1.15.82q-9.78.08-19.56.08a6.12,6.12,0,0,1-1.55-.5c.44-.41.72-.91,1-.92q10-.06,20,0C725.94,147.92,726.23,148.16,726.87,148.44Z"/><path class="cls-1" d="M683.39,448.61a2.59,2.59,0,0,1-2.46,2.84,2.69,2.69,0,0,1-.35-5.35A2.6,2.6,0,0,1,683.39,448.61Z"/><path class="cls-1" d="M292,194.73a1.76,1.76,0,0,1-1.77,1.83,1.8,1.8,0,0,1-1.75-1.86,2,2,0,0,1,1.81-1.89A1.81,1.81,0,0,1,292,194.73Z"/><path class="cls-1" d="M337.51,192.63a3.58,3.58,0,0,1-3.65-4,3.93,3.93,0,0,1,4-3.79,4.4,4.4,0,0,1,4,4C342,191.09,340.11,192.71,337.51,192.63Zm-.06-2.37c.53-.59,1.12-1,1.05-1.18a2.71,2.71,0,0,0-1.07-1.13c-.1-.06-.87.56-.84.8C336.64,189.21,337.06,189.63,337.45,190.26Z"/><path class="cls-1" d="M292.36,233.06a2,2,0,0,1-2.23,1.92,2.51,2.51,0,0,1-2.1-2.7,2.85,2.85,0,0,1,2.36-2C291.48,230.29,292.47,231.69,292.36,233.06Z"/><path class="cls-1" d="M355.46,162c1.47-.08,2.21.55,2.35,1.6a1.73,1.73,0,0,1-1.77,2.15c-1.21-.07-2.29-1.05-2-2.06C354.32,162.94,355.11,162.38,355.46,162Z"/><path class="cls-1" d="M444.91,164.44a6.14,6.14,0,0,1-1.91,1.12c-.9.18-1.68-.93-1.58-1.9a1.82,1.82,0,0,1,2-1.6C444.34,162.11,445.08,163,444.91,164.44Z"/><path class="cls-1" d="M532.17,104.17a2.3,2.3,0,0,1,2.24,2,2.35,2.35,0,0,1-2.34,2.4,2.12,2.12,0,0,1-2-2.22A2.26,2.26,0,0,1,532.17,104.17Z"/><path class="cls-1" d="M760.12,160.12c.08,1.89-1,3.15-2.68,3.22-1.92.09-3.16-.93-3.22-2.65a3.34,3.34,0,0,1,3-3.64A2.93,2.93,0,0,1,760.12,160.12Zm-2.68.59,0,.29.3-.12Z"/><path class="cls-1" d="M292.05,175.7a2.39,2.39,0,0,1-2.54,2.18,2.35,2.35,0,0,1-2.36-1.85,2.76,2.76,0,0,1,2.54-2.79A2.58,2.58,0,0,1,292.05,175.7Z"/><path class="cls-1" d="M337,170.62c-.94.81-1.49,1.61-2.22,1.83-1,.29-2.05-1-2-2,.07-.84,1.08-1.81,1.94-1.54S336,169.84,337,170.62Z"/><polygon class="cls-1" points="757.44 160.71 757.71 160.88 757.41 161 757.44 160.71"/></g></g></svg>